<?xml version="1.0" encoding="utf-8" standalone="no"?>
<!DOCTYPE svg PUBLIC "-//W3C//DTD SVG 1.1//EN"
  "http://www.w3.org/Graphics/SVG/1.1/DTD/svg11.dtd">
<svg height="360pt" version="1.1" viewBox="0 0 1080 360" width="1080pt" xmlns="http://www.w3.org/2000/svg" xmlns:xlink="http://www.w3.org/1999/xlink">
 <metadata>
  <rdf:RDF xmlns:cc="http://creativecommons.org/ns#" xmlns:dc="http://purl.org/dc/elements/1.1/" xmlns:rdf="http://www.w3.org/1999/02/22-rdf-syntax-ns#">
   <cc:Work>
    <dc:type rdf:resource="http://purl.org/dc/dcmitype/StillImage"/>
    <dc:date>2022-11-25T20:52:48.995182</dc:date>
    <dc:format>image/svg+xml</dc:format>
    <dc:creator>
     <cc:Agent>
      <dc:title>Matplotlib v3.4.3, https://matplotlib.org/</dc:title>
     </cc:Agent>
    </dc:creator>
   </cc:Work>
  </rdf:RDF>
 </metadata>
 <defs>
  <style type="text/css">*{stroke-linecap:butt;stroke-linejoin:round;}</style>
 </defs>
 <g id="figure_1">
  <g id="patch_1">
   <path d="M 0 360 
L 1080 360 
L 1080 0 
L 0 0 
z
" style="fill:#ffffff;"/>
  </g>
  <g id="axes_1">
   <g id="patch_2">
    <path d="M 135 315 
L 972 315 
L 972 43.2 
L 135 43.2 
z
" style="fill:#ffffff;"/>
   </g>
   <g id="matplotlib.axis_1">
    <g id="xtick_1">
     <g id="line2d_1">
      <path clip-path="url(#p213fa45107)" d="M 149.431034 315 
L 149.431034 43.2 
" style="fill:none;stroke:#000000;stroke-linecap:round;stroke-opacity:0.5;"/>
     </g>
     <g id="text_1">
      <!-- AL -->
      <g style="fill:#262626;" transform="translate(153.308769 342.846875)rotate(-90)scale(0.15 -0.15)">
       <defs>
        <path d="M -9 0 
L 1750 4581 
L 2403 4581 
L 4278 0 
L 3588 0 
L 3053 1388 
L 1138 1388 
L 634 0 
L -9 0 
z
M 1313 1881 
L 2866 1881 
L 2388 3150 
Q 2169 3728 2063 4100 
Q 1975 3659 1816 3225 
L 1313 1881 
z
" id="ArialMT-41" transform="scale(0.015625)"/>
        <path d="M 469 0 
L 469 4581 
L 1075 4581 
L 1075 541 
L 3331 541 
L 3331 0 
L 469 0 
z
" id="ArialMT-4c" transform="scale(0.015625)"/>
       </defs>
       <use xlink:href="#ArialMT-41"/>
       <use x="66.699219" xlink:href="#ArialMT-4c"/>
      </g>
     </g>
    </g>
    <g id="xtick_2">
     <g id="line2d_2">
      <path clip-path="url(#p213fa45107)" d="M 178.293103 315 
L 178.293103 43.2 
" style="fill:none;stroke:#000000;stroke-linecap:round;stroke-opacity:0.5;"/>
     </g>
     <g id="text_2">
      <!-- PN -->
      <g style="fill:#262626;" transform="translate(182.170838 345.338281)rotate(-90)scale(0.15 -0.15)">
       <defs>
        <path d="M 494 0 
L 494 4581 
L 2222 4581 
Q 2678 4581 2919 4538 
Q 3256 4481 3484 4323 
Q 3713 4166 3852 3881 
Q 3991 3597 3991 3256 
Q 3991 2672 3619 2267 
Q 3247 1863 2275 1863 
L 1100 1863 
L 1100 0 
L 494 0 
z
M 1100 2403 
L 2284 2403 
Q 2872 2403 3119 2622 
Q 3366 2841 3366 3238 
Q 3366 3525 3220 3729 
Q 3075 3934 2838 4000 
Q 2684 4041 2272 4041 
L 1100 4041 
L 1100 2403 
z
" id="ArialMT-50" transform="scale(0.015625)"/>
        <path d="M 488 0 
L 488 4581 
L 1109 4581 
L 3516 984 
L 3516 4581 
L 4097 4581 
L 4097 0 
L 3475 0 
L 1069 3600 
L 1069 0 
L 488 0 
z
" id="ArialMT-4e" transform="scale(0.015625)"/>
       </defs>
       <use xlink:href="#ArialMT-50"/>
       <use x="66.699219" xlink:href="#ArialMT-4e"/>
      </g>
     </g>
    </g>
    <g id="xtick_3">
     <g id="line2d_3">
      <path clip-path="url(#p213fa45107)" d="M 207.155172 315 
L 207.155172 43.2 
" style="fill:none;stroke:#000000;stroke-linecap:round;stroke-opacity:0.5;"/>
     </g>
     <g id="text_3">
      <!-- MultiGl -->
      <g style="fill:#262626;" transform="translate(211.032907 371.16875)rotate(-90)scale(0.15 -0.15)">
       <defs>
        <path d="M 475 0 
L 475 4581 
L 1388 4581 
L 2472 1338 
Q 2622 884 2691 659 
Q 2769 909 2934 1394 
L 4031 4581 
L 4847 4581 
L 4847 0 
L 4263 0 
L 4263 3834 
L 2931 0 
L 2384 0 
L 1059 3900 
L 1059 0 
L 475 0 
z
" id="ArialMT-4d" transform="scale(0.015625)"/>
        <path d="M 2597 0 
L 2597 488 
Q 2209 -75 1544 -75 
Q 1250 -75 995 37 
Q 741 150 617 320 
Q 494 491 444 738 
Q 409 903 409 1263 
L 409 3319 
L 972 3319 
L 972 1478 
Q 972 1038 1006 884 
Q 1059 663 1231 536 
Q 1403 409 1656 409 
Q 1909 409 2131 539 
Q 2353 669 2445 892 
Q 2538 1116 2538 1541 
L 2538 3319 
L 3100 3319 
L 3100 0 
L 2597 0 
z
" id="ArialMT-75" transform="scale(0.015625)"/>
        <path d="M 409 0 
L 409 4581 
L 972 4581 
L 972 0 
L 409 0 
z
" id="ArialMT-6c" transform="scale(0.015625)"/>
        <path d="M 1650 503 
L 1731 6 
Q 1494 -44 1306 -44 
Q 1000 -44 831 53 
Q 663 150 594 308 
Q 525 466 525 972 
L 525 2881 
L 113 2881 
L 113 3319 
L 525 3319 
L 525 4141 
L 1084 4478 
L 1084 3319 
L 1650 3319 
L 1650 2881 
L 1084 2881 
L 1084 941 
Q 1084 700 1114 631 
Q 1144 563 1211 522 
Q 1278 481 1403 481 
Q 1497 481 1650 503 
z
" id="ArialMT-74" transform="scale(0.015625)"/>
        <path d="M 425 3934 
L 425 4581 
L 988 4581 
L 988 3934 
L 425 3934 
z
M 425 0 
L 425 3319 
L 988 3319 
L 988 0 
L 425 0 
z
" id="ArialMT-69" transform="scale(0.015625)"/>
        <path d="M 2638 1797 
L 2638 2334 
L 4578 2338 
L 4578 638 
Q 4131 281 3656 101 
Q 3181 -78 2681 -78 
Q 2006 -78 1454 211 
Q 903 500 622 1047 
Q 341 1594 341 2269 
Q 341 2938 620 3517 
Q 900 4097 1425 4378 
Q 1950 4659 2634 4659 
Q 3131 4659 3532 4498 
Q 3934 4338 4162 4050 
Q 4391 3763 4509 3300 
L 3963 3150 
Q 3859 3500 3706 3700 
Q 3553 3900 3268 4020 
Q 2984 4141 2638 4141 
Q 2222 4141 1919 4014 
Q 1616 3888 1430 3681 
Q 1244 3475 1141 3228 
Q 966 2803 966 2306 
Q 966 1694 1177 1281 
Q 1388 869 1791 669 
Q 2194 469 2647 469 
Q 3041 469 3416 620 
Q 3791 772 3984 944 
L 3984 1797 
L 2638 1797 
z
" id="ArialMT-47" transform="scale(0.015625)"/>
       </defs>
       <use xlink:href="#ArialMT-4d"/>
       <use x="83.300781" xlink:href="#ArialMT-75"/>
       <use x="138.916016" xlink:href="#ArialMT-6c"/>
       <use x="161.132812" xlink:href="#ArialMT-74"/>
       <use x="188.916016" xlink:href="#ArialMT-69"/>
       <use x="211.132812" xlink:href="#ArialMT-47"/>
       <use x="288.916016" xlink:href="#ArialMT-6c"/>
      </g>
     </g>
    </g>
    <g id="xtick_4">
     <g id="line2d_4">
      <path clip-path="url(#p213fa45107)" d="M 236.017241 315 
L 236.017241 43.2 
" style="fill:none;stroke:#000000;stroke-linecap:round;stroke-opacity:0.5;"/>
     </g>
     <g id="text_4">
      <!-- PNv -->
      <g style="fill:#262626;" transform="translate(239.894976 352.838281)rotate(-90)scale(0.15 -0.15)">
       <defs>
        <path d="M 1344 0 
L 81 3319 
L 675 3319 
L 1388 1331 
Q 1503 1009 1600 663 
Q 1675 925 1809 1294 
L 2547 3319 
L 3125 3319 
L 1869 0 
L 1344 0 
z
" id="ArialMT-76" transform="scale(0.015625)"/>
       </defs>
       <use xlink:href="#ArialMT-50"/>
       <use x="66.699219" xlink:href="#ArialMT-4e"/>
       <use x="138.916016" xlink:href="#ArialMT-76"/>
      </g>
     </g>
    </g>
    <g id="xtick_5">
     <g id="line2d_5">
      <path clip-path="url(#p213fa45107)" d="M 264.87931 315 
L 264.87931 43.2 
" style="fill:none;stroke:#000000;stroke-linecap:round;stroke-opacity:0.5;"/>
     </g>
     <g id="text_5">
      <!-- PN-KC -->
      <g style="fill:#262626;" transform="translate(268.757045 371.171094)rotate(-90)scale(0.15 -0.15)">
       <defs>
        <path d="M 203 1375 
L 203 1941 
L 1931 1941 
L 1931 1375 
L 203 1375 
z
" id="ArialMT-2d" transform="scale(0.015625)"/>
        <path d="M 469 0 
L 469 4581 
L 1075 4581 
L 1075 2309 
L 3350 4581 
L 4172 4581 
L 2250 2725 
L 4256 0 
L 3456 0 
L 1825 2319 
L 1075 1588 
L 1075 0 
L 469 0 
z
" id="ArialMT-4b" transform="scale(0.015625)"/>
        <path d="M 3763 1606 
L 4369 1453 
Q 4178 706 3683 314 
Q 3188 -78 2472 -78 
Q 1731 -78 1267 223 
Q 803 525 561 1097 
Q 319 1669 319 2325 
Q 319 3041 592 3573 
Q 866 4106 1370 4382 
Q 1875 4659 2481 4659 
Q 3169 4659 3637 4309 
Q 4106 3959 4291 3325 
L 3694 3184 
Q 3534 3684 3231 3912 
Q 2928 4141 2469 4141 
Q 1941 4141 1586 3887 
Q 1231 3634 1087 3207 
Q 944 2781 944 2328 
Q 944 1744 1114 1308 
Q 1284 872 1643 656 
Q 2003 441 2422 441 
Q 2931 441 3284 734 
Q 3638 1028 3763 1606 
z
" id="ArialMT-43" transform="scale(0.015625)"/>
       </defs>
       <use xlink:href="#ArialMT-50"/>
       <use x="66.699219" xlink:href="#ArialMT-4e"/>
       <use x="138.916016" xlink:href="#ArialMT-2d"/>
       <use x="172.216797" xlink:href="#ArialMT-4b"/>
       <use x="238.916016" xlink:href="#ArialMT-43"/>
      </g>
     </g>
    </g>
    <g id="xtick_6">
     <g id="line2d_6">
      <path clip-path="url(#p213fa45107)" d="M 293.741379 315 
L 293.741379 43.2 
" style="fill:none;stroke:#000000;stroke-linecap:round;stroke-opacity:0.5;"/>
     </g>
     <g id="text_6">
      <!-- KCab -->
      <g style="fill:#262626;" transform="translate(297.619114 362.021094)rotate(-90)scale(0.15 -0.15)">
       <defs>
        <path d="M 2588 409 
Q 2275 144 1986 34 
Q 1697 -75 1366 -75 
Q 819 -75 525 192 
Q 231 459 231 875 
Q 231 1119 342 1320 
Q 453 1522 633 1644 
Q 813 1766 1038 1828 
Q 1203 1872 1538 1913 
Q 2219 1994 2541 2106 
Q 2544 2222 2544 2253 
Q 2544 2597 2384 2738 
Q 2169 2928 1744 2928 
Q 1347 2928 1158 2789 
Q 969 2650 878 2297 
L 328 2372 
Q 403 2725 575 2942 
Q 747 3159 1072 3276 
Q 1397 3394 1825 3394 
Q 2250 3394 2515 3294 
Q 2781 3194 2906 3042 
Q 3031 2891 3081 2659 
Q 3109 2516 3109 2141 
L 3109 1391 
Q 3109 606 3145 398 
Q 3181 191 3288 0 
L 2700 0 
Q 2613 175 2588 409 
z
M 2541 1666 
Q 2234 1541 1622 1453 
Q 1275 1403 1131 1340 
Q 988 1278 909 1158 
Q 831 1038 831 891 
Q 831 666 1001 516 
Q 1172 366 1500 366 
Q 1825 366 2078 508 
Q 2331 650 2450 897 
Q 2541 1088 2541 1459 
L 2541 1666 
z
" id="ArialMT-61" transform="scale(0.015625)"/>
        <path d="M 941 0 
L 419 0 
L 419 4581 
L 981 4581 
L 981 2947 
Q 1338 3394 1891 3394 
Q 2197 3394 2470 3270 
Q 2744 3147 2920 2923 
Q 3097 2700 3197 2384 
Q 3297 2069 3297 1709 
Q 3297 856 2875 390 
Q 2453 -75 1863 -75 
Q 1275 -75 941 416 
L 941 0 
z
M 934 1684 
Q 934 1088 1097 822 
Q 1363 388 1816 388 
Q 2184 388 2453 708 
Q 2722 1028 2722 1663 
Q 2722 2313 2464 2622 
Q 2206 2931 1841 2931 
Q 1472 2931 1203 2611 
Q 934 2291 934 1684 
z
" id="ArialMT-62" transform="scale(0.015625)"/>
       </defs>
       <use xlink:href="#ArialMT-4b"/>
       <use x="66.699219" xlink:href="#ArialMT-43"/>
       <use x="138.916016" xlink:href="#ArialMT-61"/>
       <use x="194.53125" xlink:href="#ArialMT-62"/>
      </g>
     </g>
    </g>
    <g id="xtick_7">
     <g id="line2d_7">
      <path clip-path="url(#p213fa45107)" d="M 322.603448 315 
L 322.603448 43.2 
" style="fill:none;stroke:#000000;stroke-linecap:round;stroke-opacity:0.5;"/>
     </g>
     <g id="text_7">
      <!-- Gamma4 -->
      <g style="fill:#262626;" transform="translate(326.481183 386.180469)rotate(-90)scale(0.15 -0.15)">
       <defs>
        <path d="M 422 0 
L 422 3319 
L 925 3319 
L 925 2853 
Q 1081 3097 1340 3245 
Q 1600 3394 1931 3394 
Q 2300 3394 2536 3241 
Q 2772 3088 2869 2813 
Q 3263 3394 3894 3394 
Q 4388 3394 4653 3120 
Q 4919 2847 4919 2278 
L 4919 0 
L 4359 0 
L 4359 2091 
Q 4359 2428 4304 2576 
Q 4250 2725 4106 2815 
Q 3963 2906 3769 2906 
Q 3419 2906 3187 2673 
Q 2956 2441 2956 1928 
L 2956 0 
L 2394 0 
L 2394 2156 
Q 2394 2531 2256 2718 
Q 2119 2906 1806 2906 
Q 1569 2906 1367 2781 
Q 1166 2656 1075 2415 
Q 984 2175 984 1722 
L 984 0 
L 422 0 
z
" id="ArialMT-6d" transform="scale(0.015625)"/>
        <path d="M 2069 0 
L 2069 1097 
L 81 1097 
L 81 1613 
L 2172 4581 
L 2631 4581 
L 2631 1613 
L 3250 1613 
L 3250 1097 
L 2631 1097 
L 2631 0 
L 2069 0 
z
M 2069 1613 
L 2069 3678 
L 634 1613 
L 2069 1613 
z
" id="ArialMT-34" transform="scale(0.015625)"/>
       </defs>
       <use xlink:href="#ArialMT-47"/>
       <use x="77.783203" xlink:href="#ArialMT-61"/>
       <use x="133.398438" xlink:href="#ArialMT-6d"/>
       <use x="216.699219" xlink:href="#ArialMT-6d"/>
       <use x="300" xlink:href="#ArialMT-61"/>
       <use x="355.615234" xlink:href="#ArialMT-34"/>
      </g>
     </g>
    </g>
    <g id="xtick_8">
     <g id="line2d_8">
      <path clip-path="url(#p213fa45107)" d="M 351.465517 315 
L 351.465517 43.2 
" style="fill:none;stroke:#000000;stroke-linecap:round;stroke-opacity:0.5;"/>
     </g>
     <g id="text_8">
      <!-- CLvert -->
      <g style="fill:#262626;" transform="translate(355.343252 368.677344)rotate(-90)scale(0.15 -0.15)">
       <defs>
        <path d="M 2694 1069 
L 3275 997 
Q 3138 488 2766 206 
Q 2394 -75 1816 -75 
Q 1088 -75 661 373 
Q 234 822 234 1631 
Q 234 2469 665 2931 
Q 1097 3394 1784 3394 
Q 2450 3394 2872 2941 
Q 3294 2488 3294 1666 
Q 3294 1616 3291 1516 
L 816 1516 
Q 847 969 1125 678 
Q 1403 388 1819 388 
Q 2128 388 2347 550 
Q 2566 713 2694 1069 
z
M 847 1978 
L 2700 1978 
Q 2663 2397 2488 2606 
Q 2219 2931 1791 2931 
Q 1403 2931 1139 2672 
Q 875 2413 847 1978 
z
" id="ArialMT-65" transform="scale(0.015625)"/>
        <path d="M 416 0 
L 416 3319 
L 922 3319 
L 922 2816 
Q 1116 3169 1280 3281 
Q 1444 3394 1641 3394 
Q 1925 3394 2219 3213 
L 2025 2691 
Q 1819 2813 1613 2813 
Q 1428 2813 1281 2702 
Q 1134 2591 1072 2394 
Q 978 2094 978 1738 
L 978 0 
L 416 0 
z
" id="ArialMT-72" transform="scale(0.015625)"/>
       </defs>
       <use xlink:href="#ArialMT-43"/>
       <use x="72.216797" xlink:href="#ArialMT-4c"/>
       <use x="127.832031" xlink:href="#ArialMT-76"/>
       <use x="177.832031" xlink:href="#ArialMT-65"/>
       <use x="233.447266" xlink:href="#ArialMT-72"/>
       <use x="266.748047" xlink:href="#ArialMT-74"/>
      </g>
     </g>
    </g>
    <g id="xtick_9">
     <g id="line2d_9">
      <path clip-path="url(#p213fa45107)" d="M 380.327586 315 
L 380.327586 43.2 
" style="fill:none;stroke:#000000;stroke-linecap:round;stroke-opacity:0.5;"/>
     </g>
     <g id="text_9">
      <!-- CL -->
      <g style="fill:#262626;" transform="translate(384.205321 343.674219)rotate(-90)scale(0.15 -0.15)">
       <use xlink:href="#ArialMT-43"/>
       <use x="72.216797" xlink:href="#ArialMT-4c"/>
      </g>
     </g>
    </g>
    <g id="xtick_10">
     <g id="line2d_10">
      <path clip-path="url(#p213fa45107)" d="M 409.189655 315 
L 409.189655 43.2 
" style="fill:none;stroke:#000000;stroke-linecap:round;stroke-opacity:0.5;"/>
     </g>
     <g id="text_10">
      <!-- SLP-SMPproj -->
      <g style="fill:#262626;" transform="translate(413.070905 415.3625)rotate(-90)scale(0.15 -0.15)">
       <defs>
        <path d="M 288 1472 
L 859 1522 
Q 900 1178 1048 958 
Q 1197 738 1509 602 
Q 1822 466 2213 466 
Q 2559 466 2825 569 
Q 3091 672 3220 851 
Q 3350 1031 3350 1244 
Q 3350 1459 3225 1620 
Q 3100 1781 2813 1891 
Q 2628 1963 1997 2114 
Q 1366 2266 1113 2400 
Q 784 2572 623 2826 
Q 463 3081 463 3397 
Q 463 3744 659 4045 
Q 856 4347 1234 4503 
Q 1613 4659 2075 4659 
Q 2584 4659 2973 4495 
Q 3363 4331 3572 4012 
Q 3781 3694 3797 3291 
L 3216 3247 
Q 3169 3681 2898 3903 
Q 2628 4125 2100 4125 
Q 1550 4125 1298 3923 
Q 1047 3722 1047 3438 
Q 1047 3191 1225 3031 
Q 1400 2872 2139 2705 
Q 2878 2538 3153 2413 
Q 3553 2228 3743 1945 
Q 3934 1663 3934 1294 
Q 3934 928 3725 604 
Q 3516 281 3123 101 
Q 2731 -78 2241 -78 
Q 1619 -78 1198 103 
Q 778 284 539 648 
Q 300 1013 288 1472 
z
" id="ArialMT-53" transform="scale(0.015625)"/>
        <path d="M 422 -1272 
L 422 3319 
L 934 3319 
L 934 2888 
Q 1116 3141 1344 3267 
Q 1572 3394 1897 3394 
Q 2322 3394 2647 3175 
Q 2972 2956 3137 2557 
Q 3303 2159 3303 1684 
Q 3303 1175 3120 767 
Q 2938 359 2589 142 
Q 2241 -75 1856 -75 
Q 1575 -75 1351 44 
Q 1128 163 984 344 
L 984 -1272 
L 422 -1272 
z
M 931 1641 
Q 931 1000 1190 694 
Q 1450 388 1819 388 
Q 2194 388 2461 705 
Q 2728 1022 2728 1688 
Q 2728 2322 2467 2637 
Q 2206 2953 1844 2953 
Q 1484 2953 1207 2617 
Q 931 2281 931 1641 
z
" id="ArialMT-70" transform="scale(0.015625)"/>
        <path d="M 213 1659 
Q 213 2581 725 3025 
Q 1153 3394 1769 3394 
Q 2453 3394 2887 2945 
Q 3322 2497 3322 1706 
Q 3322 1066 3130 698 
Q 2938 331 2570 128 
Q 2203 -75 1769 -75 
Q 1072 -75 642 372 
Q 213 819 213 1659 
z
M 791 1659 
Q 791 1022 1069 705 
Q 1347 388 1769 388 
Q 2188 388 2466 706 
Q 2744 1025 2744 1678 
Q 2744 2294 2464 2611 
Q 2184 2928 1769 2928 
Q 1347 2928 1069 2612 
Q 791 2297 791 1659 
z
" id="ArialMT-6f" transform="scale(0.015625)"/>
        <path d="M 419 3928 
L 419 4581 
L 981 4581 
L 981 3928 
L 419 3928 
z
M -294 -1288 
L -188 -809 
Q -19 -853 78 -853 
Q 250 -853 334 -739 
Q 419 -625 419 -169 
L 419 3319 
L 981 3319 
L 981 -181 
Q 981 -794 822 -1034 
Q 619 -1347 147 -1347 
Q -81 -1347 -294 -1288 
z
" id="ArialMT-6a" transform="scale(0.015625)"/>
       </defs>
       <use xlink:href="#ArialMT-53"/>
       <use x="66.699219" xlink:href="#ArialMT-4c"/>
       <use x="122.314453" xlink:href="#ArialMT-50"/>
       <use x="189.013672" xlink:href="#ArialMT-2d"/>
       <use x="222.314453" xlink:href="#ArialMT-53"/>
       <use x="289.013672" xlink:href="#ArialMT-4d"/>
       <use x="372.314453" xlink:href="#ArialMT-50"/>
       <use x="439.013672" xlink:href="#ArialMT-70"/>
       <use x="494.628906" xlink:href="#ArialMT-72"/>
       <use x="527.929688" xlink:href="#ArialMT-6f"/>
       <use x="583.544922" xlink:href="#ArialMT-6a"/>
      </g>
     </g>
    </g>
    <g id="xtick_11">
     <g id="line2d_11">
      <path clip-path="url(#p213fa45107)" d="M 438.051724 315 
L 438.051724 43.2 
" style="fill:none;stroke:#000000;stroke-linecap:round;stroke-opacity:0.5;"/>
     </g>
     <g id="text_11">
      <!-- SLP -->
      <g style="fill:#262626;" transform="translate(441.929459 352.852344)rotate(-90)scale(0.15 -0.15)">
       <use xlink:href="#ArialMT-53"/>
       <use x="66.699219" xlink:href="#ArialMT-4c"/>
       <use x="122.314453" xlink:href="#ArialMT-50"/>
      </g>
     </g>
    </g>
    <g id="xtick_12">
     <g id="line2d_12">
      <path clip-path="url(#p213fa45107)" d="M 466.913793 315 
L 466.913793 43.2 
" style="fill:none;stroke:#000000;stroke-linecap:round;stroke-opacity:0.5;"/>
     </g>
     <g id="text_12">
      <!-- FBcol -->
      <g style="fill:#262626;" transform="translate(470.791527 362.841406)rotate(-90)scale(0.15 -0.15)">
       <defs>
        <path d="M 525 0 
L 525 4581 
L 3616 4581 
L 3616 4041 
L 1131 4041 
L 1131 2622 
L 3281 2622 
L 3281 2081 
L 1131 2081 
L 1131 0 
L 525 0 
z
" id="ArialMT-46" transform="scale(0.015625)"/>
        <path d="M 469 0 
L 469 4581 
L 2188 4581 
Q 2713 4581 3030 4442 
Q 3347 4303 3526 4014 
Q 3706 3725 3706 3409 
Q 3706 3116 3547 2856 
Q 3388 2597 3066 2438 
Q 3481 2316 3704 2022 
Q 3928 1728 3928 1328 
Q 3928 1006 3792 729 
Q 3656 453 3456 303 
Q 3256 153 2954 76 
Q 2653 0 2216 0 
L 469 0 
z
M 1075 2656 
L 2066 2656 
Q 2469 2656 2644 2709 
Q 2875 2778 2992 2937 
Q 3109 3097 3109 3338 
Q 3109 3566 3000 3739 
Q 2891 3913 2687 3977 
Q 2484 4041 1991 4041 
L 1075 4041 
L 1075 2656 
z
M 1075 541 
L 2216 541 
Q 2509 541 2628 563 
Q 2838 600 2978 687 
Q 3119 775 3209 942 
Q 3300 1109 3300 1328 
Q 3300 1584 3169 1773 
Q 3038 1963 2805 2039 
Q 2572 2116 2134 2116 
L 1075 2116 
L 1075 541 
z
" id="ArialMT-42" transform="scale(0.015625)"/>
        <path d="M 2588 1216 
L 3141 1144 
Q 3050 572 2676 248 
Q 2303 -75 1759 -75 
Q 1078 -75 664 370 
Q 250 816 250 1647 
Q 250 2184 428 2587 
Q 606 2991 970 3192 
Q 1334 3394 1763 3394 
Q 2303 3394 2647 3120 
Q 2991 2847 3088 2344 
L 2541 2259 
Q 2463 2594 2264 2762 
Q 2066 2931 1784 2931 
Q 1359 2931 1093 2626 
Q 828 2322 828 1663 
Q 828 994 1084 691 
Q 1341 388 1753 388 
Q 2084 388 2306 591 
Q 2528 794 2588 1216 
z
" id="ArialMT-63" transform="scale(0.015625)"/>
       </defs>
       <use xlink:href="#ArialMT-46"/>
       <use x="61.083984" xlink:href="#ArialMT-42"/>
       <use x="127.783203" xlink:href="#ArialMT-63"/>
       <use x="177.783203" xlink:href="#ArialMT-6f"/>
       <use x="233.398438" xlink:href="#ArialMT-6c"/>
      </g>
     </g>
    </g>
    <g id="xtick_13">
     <g id="line2d_13">
      <path clip-path="url(#p213fa45107)" d="M 495.775862 315 
L 495.775862 43.2 
" style="fill:none;stroke:#000000;stroke-linecap:round;stroke-opacity:0.5;"/>
     </g>
     <g id="text_13">
      <!-- SPS -->
      <g style="fill:#262626;" transform="translate(499.653596 354.516406)rotate(-90)scale(0.15 -0.15)">
       <use xlink:href="#ArialMT-53"/>
       <use x="66.699219" xlink:href="#ArialMT-50"/>
       <use x="133.398438" xlink:href="#ArialMT-53"/>
      </g>
     </g>
    </g>
    <g id="xtick_14">
     <g id="line2d_14">
      <path clip-path="url(#p213fa45107)" d="M 524.637931 315 
L 524.637931 43.2 
" style="fill:none;stroke:#000000;stroke-linecap:round;stroke-opacity:0.5;"/>
     </g>
     <g id="text_14">
      <!-- IPS-Y -->
      <g style="fill:#262626;" transform="translate(528.515665 363.678125)rotate(-90)scale(0.15 -0.15)">
       <defs>
        <path d="M 597 0 
L 597 4581 
L 1203 4581 
L 1203 0 
L 597 0 
z
" id="ArialMT-49" transform="scale(0.015625)"/>
        <path d="M 1784 0 
L 1784 1941 
L 19 4581 
L 756 4581 
L 1659 3200 
Q 1909 2813 2125 2425 
Q 2331 2784 2625 3234 
L 3513 4581 
L 4219 4581 
L 2391 1941 
L 2391 0 
L 1784 0 
z
" id="ArialMT-59" transform="scale(0.015625)"/>
       </defs>
       <use xlink:href="#ArialMT-49"/>
       <use x="27.783203" xlink:href="#ArialMT-50"/>
       <use x="94.482422" xlink:href="#ArialMT-53"/>
       <use x="161.181641" xlink:href="#ArialMT-2d"/>
       <use x="194.482422" xlink:href="#ArialMT-59"/>
      </g>
     </g>
    </g>
    <g id="xtick_15">
     <g id="line2d_15">
      <path clip-path="url(#p213fa45107)" d="M 553.5 315 
L 553.5 43.2 
" style="fill:none;stroke:#000000;stroke-linecap:round;stroke-opacity:0.5;"/>
     </g>
     <g id="text_15">
      <!-- PPM2-LW -->
      <g style="fill:#262626;" transform="translate(557.377734 391.735156)rotate(-90)scale(0.15 -0.15)">
       <defs>
        <path d="M 3222 541 
L 3222 0 
L 194 0 
Q 188 203 259 391 
Q 375 700 629 1000 
Q 884 1300 1366 1694 
Q 2113 2306 2375 2664 
Q 2638 3022 2638 3341 
Q 2638 3675 2398 3904 
Q 2159 4134 1775 4134 
Q 1369 4134 1125 3890 
Q 881 3647 878 3216 
L 300 3275 
Q 359 3922 746 4261 
Q 1134 4600 1788 4600 
Q 2447 4600 2831 4234 
Q 3216 3869 3216 3328 
Q 3216 3053 3103 2787 
Q 2991 2522 2730 2228 
Q 2469 1934 1863 1422 
Q 1356 997 1212 845 
Q 1069 694 975 541 
L 3222 541 
z
" id="ArialMT-32" transform="scale(0.015625)"/>
        <path d="M 1294 0 
L 78 4581 
L 700 4581 
L 1397 1578 
Q 1509 1106 1591 641 
Q 1766 1375 1797 1488 
L 2669 4581 
L 3400 4581 
L 4056 2263 
Q 4303 1400 4413 641 
Q 4500 1075 4641 1638 
L 5359 4581 
L 5969 4581 
L 4713 0 
L 4128 0 
L 3163 3491 
Q 3041 3928 3019 4028 
Q 2947 3713 2884 3491 
L 1913 0 
L 1294 0 
z
" id="ArialMT-57" transform="scale(0.015625)"/>
       </defs>
       <use xlink:href="#ArialMT-50"/>
       <use x="66.699219" xlink:href="#ArialMT-50"/>
       <use x="133.398438" xlink:href="#ArialMT-4d"/>
       <use x="216.699219" xlink:href="#ArialMT-32"/>
       <use x="272.314453" xlink:href="#ArialMT-2d"/>
       <use x="305.615234" xlink:href="#ArialMT-4c"/>
       <use x="353.855469" xlink:href="#ArialMT-57"/>
      </g>
     </g>
    </g>
    <g id="xtick_16">
     <g id="line2d_16">
      <path clip-path="url(#p213fa45107)" d="M 582.362069 315 
L 582.362069 43.2 
" style="fill:none;stroke:#000000;stroke-linecap:round;stroke-opacity:0.5;"/>
     </g>
     <g id="text_16">
      <!-- PPM2-VI -->
      <g style="fill:#262626;" transform="translate(586.239803 384.514063)rotate(-90)scale(0.15 -0.15)">
       <defs>
        <path d="M 1803 0 
L 28 4581 
L 684 4581 
L 1875 1253 
Q 2019 853 2116 503 
Q 2222 878 2363 1253 
L 3600 4581 
L 4219 4581 
L 2425 0 
L 1803 0 
z
" id="ArialMT-56" transform="scale(0.015625)"/>
       </defs>
       <use xlink:href="#ArialMT-50"/>
       <use x="66.699219" xlink:href="#ArialMT-50"/>
       <use x="133.398438" xlink:href="#ArialMT-4d"/>
       <use x="216.699219" xlink:href="#ArialMT-32"/>
       <use x="272.314453" xlink:href="#ArialMT-2d"/>
       <use x="305.615234" xlink:href="#ArialMT-56"/>
       <use x="372.314453" xlink:href="#ArialMT-49"/>
      </g>
     </g>
    </g>
    <g id="xtick_17">
     <g id="line2d_17">
      <path clip-path="url(#p213fa45107)" d="M 611.224138 315 
L 611.224138 43.2 
" style="fill:none;stroke:#000000;stroke-linecap:round;stroke-opacity:0.5;"/>
     </g>
     <g id="text_17">
      <!-- AMMC-PLP -->
      <g style="fill:#262626;" transform="translate(615.101872 403.674219)rotate(-90)scale(0.15 -0.15)">
       <use xlink:href="#ArialMT-41"/>
       <use x="66.699219" xlink:href="#ArialMT-4d"/>
       <use x="150" xlink:href="#ArialMT-4d"/>
       <use x="233.300781" xlink:href="#ArialMT-43"/>
       <use x="305.517578" xlink:href="#ArialMT-2d"/>
       <use x="338.818359" xlink:href="#ArialMT-50"/>
       <use x="405.517578" xlink:href="#ArialMT-4c"/>
       <use x="461.132812" xlink:href="#ArialMT-50"/>
      </g>
     </g>
    </g>
    <g id="xtick_18">
     <g id="line2d_18">
      <path clip-path="url(#p213fa45107)" d="M 640.086207 315 
L 640.086207 43.2 
" style="fill:none;stroke:#000000;stroke-linecap:round;stroke-opacity:0.5;"/>
     </g>
     <g id="text_18">
      <!-- AVLPprojm -->
      <g style="fill:#262626;" transform="translate(643.876051 399.25625)rotate(-90)scale(0.15 -0.15)">
       <use xlink:href="#ArialMT-41"/>
       <use x="59.324219" xlink:href="#ArialMT-56"/>
       <use x="126.023438" xlink:href="#ArialMT-4c"/>
       <use x="181.638672" xlink:href="#ArialMT-50"/>
       <use x="248.337891" xlink:href="#ArialMT-70"/>
       <use x="303.953125" xlink:href="#ArialMT-72"/>
       <use x="337.253906" xlink:href="#ArialMT-6f"/>
       <use x="392.869141" xlink:href="#ArialMT-6a"/>
       <use x="415.085938" xlink:href="#ArialMT-6d"/>
      </g>
     </g>
    </g>
    <g id="xtick_19">
     <g id="line2d_19">
      <path clip-path="url(#p213fa45107)" d="M 668.948276 315 
L 668.948276 43.2 
" style="fill:none;stroke:#000000;stroke-linecap:round;stroke-opacity:0.5;"/>
     </g>
     <g id="text_19">
      <!-- AVLPm -->
      <g style="fill:#262626;" transform="translate(672.82601 374.246094)rotate(-90)scale(0.15 -0.15)">
       <use xlink:href="#ArialMT-41"/>
       <use x="59.324219" xlink:href="#ArialMT-56"/>
       <use x="126.023438" xlink:href="#ArialMT-4c"/>
       <use x="181.638672" xlink:href="#ArialMT-50"/>
       <use x="248.337891" xlink:href="#ArialMT-6d"/>
      </g>
     </g>
    </g>
    <g id="xtick_20">
     <g id="line2d_20">
      <path clip-path="url(#p213fa45107)" d="M 697.810345 315 
L 697.810345 43.2 
" style="fill:none;stroke:#000000;stroke-linecap:round;stroke-opacity:0.5;"/>
     </g>
     <g id="text_20">
      <!-- AVLPsmear -->
      <g style="fill:#262626;" transform="translate(701.688079 403.423437)rotate(-90)scale(0.15 -0.15)">
       <defs>
        <path d="M 197 991 
L 753 1078 
Q 800 744 1014 566 
Q 1228 388 1613 388 
Q 2000 388 2187 545 
Q 2375 703 2375 916 
Q 2375 1106 2209 1216 
Q 2094 1291 1634 1406 
Q 1016 1563 777 1677 
Q 538 1791 414 1992 
Q 291 2194 291 2438 
Q 291 2659 392 2848 
Q 494 3038 669 3163 
Q 800 3259 1026 3326 
Q 1253 3394 1513 3394 
Q 1903 3394 2198 3281 
Q 2494 3169 2634 2976 
Q 2775 2784 2828 2463 
L 2278 2388 
Q 2241 2644 2061 2787 
Q 1881 2931 1553 2931 
Q 1166 2931 1000 2803 
Q 834 2675 834 2503 
Q 834 2394 903 2306 
Q 972 2216 1119 2156 
Q 1203 2125 1616 2013 
Q 2213 1853 2448 1751 
Q 2684 1650 2818 1456 
Q 2953 1263 2953 975 
Q 2953 694 2789 445 
Q 2625 197 2315 61 
Q 2006 -75 1616 -75 
Q 969 -75 630 194 
Q 291 463 197 991 
z
" id="ArialMT-73" transform="scale(0.015625)"/>
       </defs>
       <use xlink:href="#ArialMT-41"/>
       <use x="59.324219" xlink:href="#ArialMT-56"/>
       <use x="126.023438" xlink:href="#ArialMT-4c"/>
       <use x="181.638672" xlink:href="#ArialMT-50"/>
       <use x="248.337891" xlink:href="#ArialMT-73"/>
       <use x="298.337891" xlink:href="#ArialMT-6d"/>
       <use x="381.638672" xlink:href="#ArialMT-65"/>
       <use x="437.253906" xlink:href="#ArialMT-61"/>
       <use x="492.869141" xlink:href="#ArialMT-72"/>
      </g>
     </g>
    </g>
    <g id="xtick_21">
     <g id="line2d_21">
      <path clip-path="url(#p213fa45107)" d="M 726.672414 315 
L 726.672414 43.2 
" style="fill:none;stroke:#000000;stroke-linecap:round;stroke-opacity:0.5;"/>
     </g>
     <g id="text_21">
      <!-- VLPl -->
      <g style="fill:#262626;" transform="translate(730.550148 356.185156)rotate(-90)scale(0.15 -0.15)">
       <use xlink:href="#ArialMT-56"/>
       <use x="66.699219" xlink:href="#ArialMT-4c"/>
       <use x="122.314453" xlink:href="#ArialMT-50"/>
       <use x="189.013672" xlink:href="#ArialMT-6c"/>
      </g>
     </g>
    </g>
    <g id="xtick_22">
     <g id="line2d_22">
      <path clip-path="url(#p213fa45107)" d="M 755.534483 315 
L 755.534483 43.2 
" style="fill:none;stroke:#000000;stroke-linecap:round;stroke-opacity:0.5;"/>
     </g>
     <g id="text_22">
      <!-- PLP-LH -->
      <g style="fill:#262626;" transform="translate(759.412217 377.021094)rotate(-90)scale(0.15 -0.15)">
       <defs>
        <path d="M 513 0 
L 513 4581 
L 1119 4581 
L 1119 2700 
L 3500 2700 
L 3500 4581 
L 4106 4581 
L 4106 0 
L 3500 0 
L 3500 2159 
L 1119 2159 
L 1119 0 
L 513 0 
z
" id="ArialMT-48" transform="scale(0.015625)"/>
       </defs>
       <use xlink:href="#ArialMT-50"/>
       <use x="66.699219" xlink:href="#ArialMT-4c"/>
       <use x="122.314453" xlink:href="#ArialMT-50"/>
       <use x="189.013672" xlink:href="#ArialMT-2d"/>
       <use x="222.314453" xlink:href="#ArialMT-4c"/>
       <use x="277.929688" xlink:href="#ArialMT-48"/>
      </g>
     </g>
    </g>
    <g id="xtick_23">
     <g id="line2d_23">
      <path clip-path="url(#p213fa45107)" d="M 784.396552 315 
L 784.396552 43.2 
" style="fill:none;stroke:#000000;stroke-linecap:round;stroke-opacity:0.5;"/>
     </g>
     <g id="text_23">
      <!-- PENP-CL -->
      <g style="fill:#262626;" transform="translate(788.274286 389.517969)rotate(-90)scale(0.15 -0.15)">
       <defs>
        <path d="M 506 0 
L 506 4581 
L 3819 4581 
L 3819 4041 
L 1113 4041 
L 1113 2638 
L 3647 2638 
L 3647 2100 
L 1113 2100 
L 1113 541 
L 3925 541 
L 3925 0 
L 506 0 
z
" id="ArialMT-45" transform="scale(0.015625)"/>
       </defs>
       <use xlink:href="#ArialMT-50"/>
       <use x="66.699219" xlink:href="#ArialMT-45"/>
       <use x="133.398438" xlink:href="#ArialMT-4e"/>
       <use x="205.615234" xlink:href="#ArialMT-50"/>
       <use x="272.314453" xlink:href="#ArialMT-2d"/>
       <use x="305.615234" xlink:href="#ArialMT-43"/>
       <use x="377.832031" xlink:href="#ArialMT-4c"/>
      </g>
     </g>
    </g>
    <g id="xtick_24">
     <g id="line2d_24">
      <path clip-path="url(#p213fa45107)" d="M 813.258621 315 
L 813.258621 43.2 
" style="fill:none;stroke:#000000;stroke-linecap:round;stroke-opacity:0.5;"/>
     </g>
     <g id="text_24">
      <!-- GNGm -->
      <g style="fill:#262626;" transform="translate(817.136355 371.161719)rotate(-90)scale(0.15 -0.15)">
       <use xlink:href="#ArialMT-47"/>
       <use x="77.783203" xlink:href="#ArialMT-4e"/>
       <use x="150" xlink:href="#ArialMT-47"/>
       <use x="227.783203" xlink:href="#ArialMT-6d"/>
      </g>
     </g>
    </g>
    <g id="xtick_25">
     <g id="line2d_25">
      <path clip-path="url(#p213fa45107)" d="M 842.12069 315 
L 842.12069 43.2 
" style="fill:none;stroke:#000000;stroke-linecap:round;stroke-opacity:0.5;"/>
     </g>
     <g id="text_25">
      <!-- GNGml -->
      <g style="fill:#262626;" transform="translate(845.998424 374.494531)rotate(-90)scale(0.15 -0.15)">
       <use xlink:href="#ArialMT-47"/>
       <use x="77.783203" xlink:href="#ArialMT-4e"/>
       <use x="150" xlink:href="#ArialMT-47"/>
       <use x="227.783203" xlink:href="#ArialMT-6d"/>
       <use x="311.083984" xlink:href="#ArialMT-6c"/>
      </g>
     </g>
    </g>
    <g id="xtick_26">
     <g id="line2d_26">
      <path clip-path="url(#p213fa45107)" d="M 870.982759 315 
L 870.982759 43.2 
" style="fill:none;stroke:#000000;stroke-linecap:round;stroke-opacity:0.5;"/>
     </g>
     <g id="text_26">
      <!-- GNGl -->
      <g style="fill:#262626;" transform="translate(874.860493 362)rotate(-90)scale(0.15 -0.15)">
       <use xlink:href="#ArialMT-47"/>
       <use x="77.783203" xlink:href="#ArialMT-4e"/>
       <use x="150" xlink:href="#ArialMT-47"/>
       <use x="227.783203" xlink:href="#ArialMT-6c"/>
      </g>
     </g>
    </g>
    <g id="xtick_27">
     <g id="line2d_27">
      <path clip-path="url(#p213fa45107)" d="M 899.844828 315 
L 899.844828 43.2 
" style="fill:none;stroke:#000000;stroke-linecap:round;stroke-opacity:0.5;"/>
     </g>
     <g id="text_27">
      <!-- GNG-AMMC -->
      <g style="fill:#262626;" transform="translate(903.722562 409.489062)rotate(-90)scale(0.15 -0.15)">
       <use xlink:href="#ArialMT-47"/>
       <use x="77.783203" xlink:href="#ArialMT-4e"/>
       <use x="150" xlink:href="#ArialMT-47"/>
       <use x="227.783203" xlink:href="#ArialMT-2d"/>
       <use x="261.083984" xlink:href="#ArialMT-41"/>
       <use x="327.783203" xlink:href="#ArialMT-4d"/>
       <use x="411.083984" xlink:href="#ArialMT-4d"/>
       <use x="494.384766" xlink:href="#ArialMT-43"/>
      </g>
     </g>
    </g>
    <g id="xtick_28">
     <g id="line2d_28">
      <path clip-path="url(#p213fa45107)" d="M 928.706897 315 
L 928.706897 43.2 
" style="fill:none;stroke:#000000;stroke-linecap:round;stroke-opacity:0.5;"/>
     </g>
     <g id="text_28">
      <!-- OL -->
      <g style="fill:#262626;" transform="translate(932.584631 344.508594)rotate(-90)scale(0.15 -0.15)">
       <defs>
        <path d="M 309 2231 
Q 309 3372 921 4017 
Q 1534 4663 2503 4663 
Q 3138 4663 3647 4359 
Q 4156 4056 4423 3514 
Q 4691 2972 4691 2284 
Q 4691 1588 4409 1038 
Q 4128 488 3612 205 
Q 3097 -78 2500 -78 
Q 1853 -78 1343 234 
Q 834 547 571 1087 
Q 309 1628 309 2231 
z
M 934 2222 
Q 934 1394 1379 917 
Q 1825 441 2497 441 
Q 3181 441 3623 922 
Q 4066 1403 4066 2288 
Q 4066 2847 3877 3264 
Q 3688 3681 3323 3911 
Q 2959 4141 2506 4141 
Q 1863 4141 1398 3698 
Q 934 3256 934 2222 
z
" id="ArialMT-4f" transform="scale(0.015625)"/>
       </defs>
       <use xlink:href="#ArialMT-4f"/>
       <use x="77.783203" xlink:href="#ArialMT-4c"/>
      </g>
     </g>
    </g>
    <g id="xtick_29">
     <g id="line2d_29">
      <path clip-path="url(#p213fa45107)" d="M 957.568966 315 
L 957.568966 43.2 
" style="fill:none;stroke:#000000;stroke-linecap:round;stroke-opacity:0.5;"/>
     </g>
     <g id="text_29">
      <!-- LOP -->
      <g style="fill:#262626;" transform="translate(961.4467 354.514063)rotate(-90)scale(0.15 -0.15)">
       <use xlink:href="#ArialMT-4c"/>
       <use x="55.615234" xlink:href="#ArialMT-4f"/>
       <use x="133.398438" xlink:href="#ArialMT-50"/>
      </g>
     </g>
    </g>
    <g id="text_30">
     <!-- Region -->
     <g style="fill:#262626;" transform="translate(521.8125 433.678125)scale(0.2 -0.2)">
      <defs>
       <path d="M 503 0 
L 503 4581 
L 2534 4581 
Q 3147 4581 3465 4457 
Q 3784 4334 3975 4021 
Q 4166 3709 4166 3331 
Q 4166 2844 3850 2509 
Q 3534 2175 2875 2084 
Q 3116 1969 3241 1856 
Q 3506 1613 3744 1247 
L 4541 0 
L 3778 0 
L 3172 953 
Q 2906 1366 2734 1584 
Q 2563 1803 2427 1890 
Q 2291 1978 2150 2013 
Q 2047 2034 1813 2034 
L 1109 2034 
L 1109 0 
L 503 0 
z
M 1109 2559 
L 2413 2559 
Q 2828 2559 3062 2645 
Q 3297 2731 3419 2920 
Q 3541 3109 3541 3331 
Q 3541 3656 3305 3865 
Q 3069 4075 2559 4075 
L 1109 4075 
L 1109 2559 
z
" id="ArialMT-52" transform="scale(0.015625)"/>
       <path d="M 319 -275 
L 866 -356 
Q 900 -609 1056 -725 
Q 1266 -881 1628 -881 
Q 2019 -881 2231 -725 
Q 2444 -569 2519 -288 
Q 2563 -116 2559 434 
Q 2191 0 1641 0 
Q 956 0 581 494 
Q 206 988 206 1678 
Q 206 2153 378 2554 
Q 550 2956 876 3175 
Q 1203 3394 1644 3394 
Q 2231 3394 2613 2919 
L 2613 3319 
L 3131 3319 
L 3131 450 
Q 3131 -325 2973 -648 
Q 2816 -972 2473 -1159 
Q 2131 -1347 1631 -1347 
Q 1038 -1347 672 -1080 
Q 306 -813 319 -275 
z
M 784 1719 
Q 784 1066 1043 766 
Q 1303 466 1694 466 
Q 2081 466 2343 764 
Q 2606 1063 2606 1700 
Q 2606 2309 2336 2618 
Q 2066 2928 1684 2928 
Q 1309 2928 1046 2623 
Q 784 2319 784 1719 
z
" id="ArialMT-67" transform="scale(0.015625)"/>
       <path d="M 422 0 
L 422 3319 
L 928 3319 
L 928 2847 
Q 1294 3394 1984 3394 
Q 2284 3394 2536 3286 
Q 2788 3178 2913 3003 
Q 3038 2828 3088 2588 
Q 3119 2431 3119 2041 
L 3119 0 
L 2556 0 
L 2556 2019 
Q 2556 2363 2490 2533 
Q 2425 2703 2258 2804 
Q 2091 2906 1866 2906 
Q 1506 2906 1245 2678 
Q 984 2450 984 1813 
L 984 0 
L 422 0 
z
" id="ArialMT-6e" transform="scale(0.015625)"/>
      </defs>
      <use xlink:href="#ArialMT-52"/>
      <use x="72.216797" xlink:href="#ArialMT-65"/>
      <use x="127.832031" xlink:href="#ArialMT-67"/>
      <use x="183.447266" xlink:href="#ArialMT-69"/>
      <use x="205.664062" xlink:href="#ArialMT-6f"/>
      <use x="261.279297" xlink:href="#ArialMT-6e"/>
     </g>
    </g>
   </g>
   <g id="matplotlib.axis_2">
    <g id="ytick_1">
     <g id="line2d_30">
      <path clip-path="url(#p213fa45107)" d="M 135 258.791168 
L 972 258.791168 
" style="fill:none;stroke:#000000;stroke-linecap:round;stroke-opacity:0.5;"/>
     </g>
     <g id="text_31">
      <!-- −0.4 -->
      <g style="fill:#262626;" transform="translate(82.070625 266.664762)scale(0.22 -0.22)">
       <defs>
        <path d="M 3381 1997 
L 356 1997 
L 356 2522 
L 3381 2522 
L 3381 1997 
z
" id="ArialMT-2212" transform="scale(0.015625)"/>
        <path d="M 266 2259 
Q 266 3072 433 3567 
Q 600 4063 929 4331 
Q 1259 4600 1759 4600 
Q 2128 4600 2406 4451 
Q 2684 4303 2865 4023 
Q 3047 3744 3150 3342 
Q 3253 2941 3253 2259 
Q 3253 1453 3087 958 
Q 2922 463 2592 192 
Q 2263 -78 1759 -78 
Q 1097 -78 719 397 
Q 266 969 266 2259 
z
M 844 2259 
Q 844 1131 1108 757 
Q 1372 384 1759 384 
Q 2147 384 2411 759 
Q 2675 1134 2675 2259 
Q 2675 3391 2411 3762 
Q 2147 4134 1753 4134 
Q 1366 4134 1134 3806 
Q 844 3388 844 2259 
z
" id="ArialMT-30" transform="scale(0.015625)"/>
        <path d="M 581 0 
L 581 641 
L 1222 641 
L 1222 0 
L 581 0 
z
" id="ArialMT-2e" transform="scale(0.015625)"/>
       </defs>
       <use xlink:href="#ArialMT-2212"/>
       <use x="58.398438" xlink:href="#ArialMT-30"/>
       <use x="114.013672" xlink:href="#ArialMT-2e"/>
       <use x="141.796875" xlink:href="#ArialMT-34"/>
      </g>
     </g>
    </g>
    <g id="ytick_2">
     <g id="line2d_31">
      <path clip-path="url(#p213fa45107)" d="M 135 194.990612 
L 972 194.990612 
" style="fill:none;stroke:#000000;stroke-linecap:round;stroke-opacity:0.5;"/>
     </g>
     <g id="text_32">
      <!-- −0.2 -->
      <g style="fill:#262626;" transform="translate(82.070625 202.864206)scale(0.22 -0.22)">
       <use xlink:href="#ArialMT-2212"/>
       <use x="58.398438" xlink:href="#ArialMT-30"/>
       <use x="114.013672" xlink:href="#ArialMT-2e"/>
       <use x="141.796875" xlink:href="#ArialMT-32"/>
      </g>
     </g>
    </g>
    <g id="ytick_3">
     <g id="line2d_32">
      <path clip-path="url(#p213fa45107)" d="M 135 131.190056 
L 972 131.190056 
" style="fill:none;stroke:#000000;stroke-linecap:round;stroke-opacity:0.5;"/>
     </g>
     <g id="text_33">
      <!-- 0.0 -->
      <g style="fill:#262626;" transform="translate(94.92 139.06365)scale(0.22 -0.22)">
       <use xlink:href="#ArialMT-30"/>
       <use x="55.615234" xlink:href="#ArialMT-2e"/>
       <use x="83.398438" xlink:href="#ArialMT-30"/>
      </g>
     </g>
    </g>
    <g id="ytick_4">
     <g id="line2d_33">
      <path clip-path="url(#p213fa45107)" d="M 135 67.3895 
L 972 67.3895 
" style="fill:none;stroke:#000000;stroke-linecap:round;stroke-opacity:0.5;"/>
     </g>
     <g id="text_34">
      <!-- 0.2 -->
      <g style="fill:#262626;" transform="translate(94.92 75.263094)scale(0.22 -0.22)">
       <use xlink:href="#ArialMT-30"/>
       <use x="55.615234" xlink:href="#ArialMT-2e"/>
       <use x="83.398438" xlink:href="#ArialMT-32"/>
      </g>
     </g>
    </g>
    <g id="text_35">
     <!-- R$^2$ipsi-R$^2$contra (dF/F ~ Turn) -->
     <g style="fill:#262626;" transform="translate(73.670625 311.3)rotate(-90)scale(0.2 -0.2)">
      <defs>
       <path d="M 1228 531 
L 3431 531 
L 3431 0 
L 469 0 
L 469 531 
Q 828 903 1448 1529 
Q 2069 2156 2228 2338 
Q 2531 2678 2651 2914 
Q 2772 3150 2772 3378 
Q 2772 3750 2511 3984 
Q 2250 4219 1831 4219 
Q 1534 4219 1204 4116 
Q 875 4013 500 3803 
L 500 4441 
Q 881 4594 1212 4672 
Q 1544 4750 1819 4750 
Q 2544 4750 2975 4387 
Q 3406 4025 3406 3419 
Q 3406 3131 3298 2873 
Q 3191 2616 2906 2266 
Q 2828 2175 2409 1742 
Q 1991 1309 1228 531 
z
" id="DejaVuSans-32" transform="scale(0.015625)"/>
       <path id="ArialMT-20" transform="scale(0.015625)"/>
       <path d="M 1497 -1347 
Q 1031 -759 709 28 
Q 388 816 388 1659 
Q 388 2403 628 3084 
Q 909 3875 1497 4659 
L 1900 4659 
Q 1522 4009 1400 3731 
Q 1209 3300 1100 2831 
Q 966 2247 966 1656 
Q 966 153 1900 -1347 
L 1497 -1347 
z
" id="ArialMT-28" transform="scale(0.015625)"/>
       <path d="M 2575 0 
L 2575 419 
Q 2259 -75 1647 -75 
Q 1250 -75 917 144 
Q 584 363 401 755 
Q 219 1147 219 1656 
Q 219 2153 384 2558 
Q 550 2963 881 3178 
Q 1213 3394 1622 3394 
Q 1922 3394 2156 3267 
Q 2391 3141 2538 2938 
L 2538 4581 
L 3097 4581 
L 3097 0 
L 2575 0 
z
M 797 1656 
Q 797 1019 1065 703 
Q 1334 388 1700 388 
Q 2069 388 2326 689 
Q 2584 991 2584 1609 
Q 2584 2291 2321 2609 
Q 2059 2928 1675 2928 
Q 1300 2928 1048 2622 
Q 797 2316 797 1656 
z
" id="ArialMT-64" transform="scale(0.015625)"/>
       <path d="M 0 -78 
L 1328 4659 
L 1778 4659 
L 453 -78 
L 0 -78 
z
" id="ArialMT-2f" transform="scale(0.015625)"/>
       <path d="M 272 1741 
L 272 2381 
Q 603 2756 1141 2756 
Q 1328 2756 1534 2701 
Q 1741 2647 2122 2484 
Q 2338 2394 2445 2366 
Q 2553 2338 2663 2338 
Q 2866 2338 3083 2459 
Q 3300 2581 3469 2766 
L 3469 2103 
Q 3269 1916 3064 1831 
Q 2859 1747 2603 1747 
Q 2416 1747 2245 1790 
Q 2075 1834 1704 2000 
Q 1334 2166 1088 2166 
Q 888 2166 711 2080 
Q 534 1994 272 1741 
z
" id="ArialMT-7e" transform="scale(0.015625)"/>
       <path d="M 1659 0 
L 1659 4041 
L 150 4041 
L 150 4581 
L 3781 4581 
L 3781 4041 
L 2266 4041 
L 2266 0 
L 1659 0 
z
" id="ArialMT-54" transform="scale(0.015625)"/>
       <path d="M 791 -1347 
L 388 -1347 
Q 1322 153 1322 1656 
Q 1322 2244 1188 2822 
Q 1081 3291 891 3722 
Q 769 4003 388 4659 
L 791 4659 
Q 1378 3875 1659 3084 
Q 1900 2403 1900 1659 
Q 1900 816 1576 28 
Q 1253 -759 791 -1347 
z
" id="ArialMT-29" transform="scale(0.015625)"/>
      </defs>
      <use transform="translate(0 0.765625)" xlink:href="#ArialMT-52"/>
      <use transform="translate(73.173828 39.046875)scale(0.7)" xlink:href="#DejaVuSans-32"/>
      <use transform="translate(120.444336 0.765625)" xlink:href="#ArialMT-69"/>
      <use transform="translate(142.661133 0.765625)" xlink:href="#ArialMT-70"/>
      <use transform="translate(198.276367 0.765625)" xlink:href="#ArialMT-73"/>
      <use transform="translate(248.276367 0.765625)" xlink:href="#ArialMT-69"/>
      <use transform="translate(270.493164 0.765625)" xlink:href="#ArialMT-2d"/>
      <use transform="translate(303.793945 0.765625)" xlink:href="#ArialMT-52"/>
      <use transform="translate(376.967773 39.046875)scale(0.7)" xlink:href="#DejaVuSans-32"/>
      <use transform="translate(424.238281 0.765625)" xlink:href="#ArialMT-63"/>
      <use transform="translate(474.238281 0.765625)" xlink:href="#ArialMT-6f"/>
      <use transform="translate(529.853516 0.765625)" xlink:href="#ArialMT-6e"/>
      <use transform="translate(585.46875 0.765625)" xlink:href="#ArialMT-74"/>
      <use transform="translate(613.251953 0.765625)" xlink:href="#ArialMT-72"/>
      <use transform="translate(646.552734 0.765625)" xlink:href="#ArialMT-61"/>
      <use transform="translate(702.167969 0.765625)" xlink:href="#ArialMT-20"/>
      <use transform="translate(729.951172 0.765625)" xlink:href="#ArialMT-28"/>
      <use transform="translate(763.251953 0.765625)" xlink:href="#ArialMT-64"/>
      <use transform="translate(818.867188 0.765625)" xlink:href="#ArialMT-46"/>
      <use transform="translate(879.951172 0.765625)" xlink:href="#ArialMT-2f"/>
      <use transform="translate(907.734375 0.765625)" xlink:href="#ArialMT-46"/>
      <use transform="translate(968.818359 0.765625)" xlink:href="#ArialMT-20"/>
      <use transform="translate(996.601562 0.765625)" xlink:href="#ArialMT-7e"/>
      <use transform="translate(1055 0.765625)" xlink:href="#ArialMT-20"/>
      <use transform="translate(1082.783203 0.765625)" xlink:href="#ArialMT-54"/>
      <use transform="translate(1143.867188 0.765625)" xlink:href="#ArialMT-75"/>
      <use transform="translate(1199.482422 0.765625)" xlink:href="#ArialMT-72"/>
      <use transform="translate(1232.783203 0.765625)" xlink:href="#ArialMT-6e"/>
      <use transform="translate(1288.398438 0.765625)" xlink:href="#ArialMT-29"/>
     </g>
    </g>
   </g>
   <g id="PathCollection_1">
    <defs>
     <path d="M -5.477226 5.477226 
L 5.477226 5.477226 
L 5.477226 -5.477226 
L -5.477226 -5.477226 
z
" id="mb87c0f66a4" style="stroke:#ffa500;"/>
    </defs>
    <g clip-path="url(#p213fa45107)">
     <use style="fill:#ffa500;stroke:#ffa500;" x="149.431034" xlink:href="#mb87c0f66a4" y="145.563479"/>
     <use style="fill:#ffa500;stroke:#ffa500;" x="178.293103" xlink:href="#mb87c0f66a4" y="123.766574"/>
     <use style="fill:#ffa500;stroke:#ffa500;" x="207.155172" xlink:href="#mb87c0f66a4" y="147.648006"/>
     <use style="fill:#ffa500;stroke:#ffa500;" x="236.017241" xlink:href="#mb87c0f66a4" y="134.980199"/>
     <use style="fill:#ffa500;stroke:#ffa500;" x="264.87931" xlink:href="#mb87c0f66a4" y="149.859111"/>
     <use style="fill:#ffa500;stroke:#ffa500;" x="293.741379" xlink:href="#mb87c0f66a4" y="136.234265"/>
     <use style="fill:#ffa500;stroke:#ffa500;" x="322.603448" xlink:href="#mb87c0f66a4" y="141.830383"/>
     <use style="fill:#ffa500;stroke:#ffa500;" x="351.465517" xlink:href="#mb87c0f66a4" y="140.421284"/>
     <use style="fill:#ffa500;stroke:#ffa500;" x="380.327586" xlink:href="#mb87c0f66a4" y="152.933672"/>
     <use style="fill:#ffa500;stroke:#ffa500;" x="409.189655" xlink:href="#mb87c0f66a4" y="127.559233"/>
     <use style="fill:#ffa500;stroke:#ffa500;" x="438.051724" xlink:href="#mb87c0f66a4" y="140.851239"/>
     <use style="fill:#ffa500;stroke:#ffa500;" x="466.913793" xlink:href="#mb87c0f66a4" y="172.374831"/>
     <use style="fill:#ffa500;stroke:#ffa500;" x="495.775862" xlink:href="#mb87c0f66a4" y="145.563479"/>
     <use style="fill:#ffa500;stroke:#ffa500;" x="524.637931" xlink:href="#mb87c0f66a4" y="190.101249"/>
     <use style="fill:#ffa500;stroke:#ffa500;" x="553.5" xlink:href="#mb87c0f66a4" y="131.38564"/>
     <use style="fill:#ffa500;stroke:#ffa500;" x="582.362069" xlink:href="#mb87c0f66a4" y="181.578337"/>
     <use style="fill:#ffa500;stroke:#ffa500;" x="611.224138" xlink:href="#mb87c0f66a4" y="145.563479"/>
     <use style="fill:#ffa500;stroke:#ffa500;" x="640.086207" xlink:href="#mb87c0f66a4" y="157.799429"/>
     <use style="fill:#ffa500;stroke:#ffa500;" x="668.948276" xlink:href="#mb87c0f66a4" y="129.135961"/>
     <use style="fill:#ffa500;stroke:#ffa500;" x="697.810345" xlink:href="#mb87c0f66a4" y="145.563479"/>
     <use style="fill:#ffa500;stroke:#ffa500;" x="726.672414" xlink:href="#mb87c0f66a4" y="145.563479"/>
     <use style="fill:#ffa500;stroke:#ffa500;" x="755.534483" xlink:href="#mb87c0f66a4" y="145.563479"/>
     <use style="fill:#ffa500;stroke:#ffa500;" x="784.396552" xlink:href="#mb87c0f66a4" y="145.563479"/>
     <use style="fill:#ffa500;stroke:#ffa500;" x="813.258621" xlink:href="#mb87c0f66a4" y="235.895117"/>
     <use style="fill:#ffa500;stroke:#ffa500;" x="842.12069" xlink:href="#mb87c0f66a4" y="145.563479"/>
     <use style="fill:#ffa500;stroke:#ffa500;" x="870.982759" xlink:href="#mb87c0f66a4" y="146.149731"/>
     <use style="fill:#ffa500;stroke:#ffa500;" x="899.844828" xlink:href="#mb87c0f66a4" y="145.563479"/>
     <use style="fill:#ffa500;stroke:#ffa500;" x="928.706897" xlink:href="#mb87c0f66a4" y="133.113176"/>
     <use style="fill:#ffa500;stroke:#ffa500;" x="957.568966" xlink:href="#mb87c0f66a4" y="145.563479"/>
    </g>
   </g>
   <g id="PathCollection_2">
    <defs>
     <path d="M -5.477226 5.477226 
L 5.477226 5.477226 
L 5.477226 -5.477226 
L -5.477226 -5.477226 
z
" id="m743e29fd44" style="stroke:#bf00bf;"/>
    </defs>
    <g clip-path="url(#p213fa45107)">
     <use style="fill:#bf00bf;stroke:#bf00bf;" x="149.431034" xlink:href="#m743e29fd44" y="126.157008"/>
     <use style="fill:#bf00bf;stroke:#bf00bf;" x="178.293103" xlink:href="#m743e29fd44" y="127.385678"/>
     <use style="fill:#bf00bf;stroke:#bf00bf;" x="207.155172" xlink:href="#m743e29fd44" y="129.501239"/>
     <use style="fill:#bf00bf;stroke:#bf00bf;" x="236.017241" xlink:href="#m743e29fd44" y="121.327952"/>
     <use style="fill:#bf00bf;stroke:#bf00bf;" x="264.87931" xlink:href="#m743e29fd44" y="126.046537"/>
     <use style="fill:#bf00bf;stroke:#bf00bf;" x="293.741379" xlink:href="#m743e29fd44" y="123.882543"/>
     <use style="fill:#bf00bf;stroke:#bf00bf;" x="322.603448" xlink:href="#m743e29fd44" y="132.685219"/>
     <use style="fill:#bf00bf;stroke:#bf00bf;" x="351.465517" xlink:href="#m743e29fd44" y="135.299051"/>
     <use style="fill:#bf00bf;stroke:#bf00bf;" x="380.327586" xlink:href="#m743e29fd44" y="135.141188"/>
     <use style="fill:#bf00bf;stroke:#bf00bf;" x="409.189655" xlink:href="#m743e29fd44" y="136.193521"/>
     <use style="fill:#bf00bf;stroke:#bf00bf;" x="438.051724" xlink:href="#m743e29fd44" y="135.135001"/>
     <use style="fill:#bf00bf;stroke:#bf00bf;" x="466.913793" xlink:href="#m743e29fd44" y="117.065029"/>
     <use style="fill:#bf00bf;stroke:#bf00bf;" x="495.775862" xlink:href="#m743e29fd44" y="125.449965"/>
     <use style="fill:#bf00bf;stroke:#bf00bf;" x="524.637931" xlink:href="#m743e29fd44" y="75.109465"/>
     <use style="fill:#bf00bf;stroke:#bf00bf;" x="553.5" xlink:href="#m743e29fd44" y="222.126246"/>
     <use style="fill:#bf00bf;stroke:#bf00bf;" x="582.362069" xlink:href="#m743e29fd44" y="115.033584"/>
     <use style="fill:#bf00bf;stroke:#bf00bf;" x="611.224138" xlink:href="#m743e29fd44" y="123.706798"/>
     <use style="fill:#bf00bf;stroke:#bf00bf;" x="640.086207" xlink:href="#m743e29fd44" y="130.062244"/>
     <use style="fill:#bf00bf;stroke:#bf00bf;" x="668.948276" xlink:href="#m743e29fd44" y="125.923772"/>
     <use style="fill:#bf00bf;stroke:#bf00bf;" x="697.810345" xlink:href="#m743e29fd44" y="141.23971"/>
     <use style="fill:#bf00bf;stroke:#bf00bf;" x="726.672414" xlink:href="#m743e29fd44" y="125.573731"/>
     <use style="fill:#bf00bf;stroke:#bf00bf;" x="755.534483" xlink:href="#m743e29fd44" y="126.854558"/>
     <use style="fill:#bf00bf;stroke:#bf00bf;" x="784.396552" xlink:href="#m743e29fd44" y="122.782746"/>
     <use style="fill:#bf00bf;stroke:#bf00bf;" x="813.258621" xlink:href="#m743e29fd44" y="128.726007"/>
     <use style="fill:#bf00bf;stroke:#bf00bf;" x="842.12069" xlink:href="#m743e29fd44" y="104.901397"/>
     <use style="fill:#bf00bf;stroke:#bf00bf;" x="870.982759" xlink:href="#m743e29fd44" y="145.835951"/>
     <use style="fill:#bf00bf;stroke:#bf00bf;" x="899.844828" xlink:href="#m743e29fd44" y="124.982003"/>
     <use style="fill:#bf00bf;stroke:#bf00bf;" x="928.706897" xlink:href="#m743e29fd44" y="126.459569"/>
     <use style="fill:#bf00bf;stroke:#bf00bf;" x="957.568966" xlink:href="#m743e29fd44" y="124.246489"/>
    </g>
   </g>
   <g id="patch_3">
    <path clip-path="url(#p213fa45107)" d="M 142.215517 131.190056 
L 156.646552 131.190056 
L 156.646552 145.563479 
L 142.215517 145.563479 
z
" style="fill:none;opacity:0;"/>
   </g>
   <g id="patch_4">
    <path clip-path="url(#p213fa45107)" d="M 171.077586 131.190056 
L 185.508621 131.190056 
L 185.508621 123.766574 
L 171.077586 123.766574 
z
" style="fill:none;opacity:0;"/>
   </g>
   <g id="patch_5">
    <path clip-path="url(#p213fa45107)" d="M 199.939655 131.190056 
L 214.37069 131.190056 
L 214.37069 147.648006 
L 199.939655 147.648006 
z
" style="fill:none;opacity:0;"/>
   </g>
   <g id="patch_6">
    <path clip-path="url(#p213fa45107)" d="M 228.801724 131.190056 
L 243.232759 131.190056 
L 243.232759 134.980199 
L 228.801724 134.980199 
z
" style="fill:none;opacity:0;"/>
   </g>
   <g id="patch_7">
    <path clip-path="url(#p213fa45107)" d="M 257.663793 131.190056 
L 272.094828 131.190056 
L 272.094828 149.859111 
L 257.663793 149.859111 
z
" style="fill:none;opacity:0;"/>
   </g>
   <g id="patch_8">
    <path clip-path="url(#p213fa45107)" d="M 286.525862 131.190056 
L 300.956897 131.190056 
L 300.956897 136.234265 
L 286.525862 136.234265 
z
" style="fill:none;opacity:0;"/>
   </g>
   <g id="patch_9">
    <path clip-path="url(#p213fa45107)" d="M 315.387931 131.190056 
L 329.818966 131.190056 
L 329.818966 141.830383 
L 315.387931 141.830383 
z
" style="fill:none;opacity:0;"/>
   </g>
   <g id="patch_10">
    <path clip-path="url(#p213fa45107)" d="M 344.25 131.190056 
L 358.681034 131.190056 
L 358.681034 140.421284 
L 344.25 140.421284 
z
" style="fill:none;opacity:0;"/>
   </g>
   <g id="patch_11">
    <path clip-path="url(#p213fa45107)" d="M 373.112069 131.190056 
L 387.543103 131.190056 
L 387.543103 152.933672 
L 373.112069 152.933672 
z
" style="fill:none;opacity:0;"/>
   </g>
   <g id="patch_12">
    <path clip-path="url(#p213fa45107)" d="M 401.974138 131.190056 
L 416.405172 131.190056 
L 416.405172 127.559233 
L 401.974138 127.559233 
z
" style="fill:none;opacity:0;"/>
   </g>
   <g id="patch_13">
    <path clip-path="url(#p213fa45107)" d="M 430.836207 131.190056 
L 445.267241 131.190056 
L 445.267241 140.851239 
L 430.836207 140.851239 
z
" style="fill:none;opacity:0;"/>
   </g>
   <g id="patch_14">
    <path clip-path="url(#p213fa45107)" d="M 459.698276 131.190056 
L 474.12931 131.190056 
L 474.12931 172.374831 
L 459.698276 172.374831 
z
" style="fill:none;opacity:0;"/>
   </g>
   <g id="patch_15">
    <path clip-path="url(#p213fa45107)" d="M 488.560345 131.190056 
L 502.991379 131.190056 
L 502.991379 145.563479 
L 488.560345 145.563479 
z
" style="fill:none;opacity:0;"/>
   </g>
   <g id="patch_16">
    <path clip-path="url(#p213fa45107)" d="M 517.422414 131.190056 
L 531.853448 131.190056 
L 531.853448 190.101249 
L 517.422414 190.101249 
z
" style="fill:none;opacity:0;"/>
   </g>
   <g id="patch_17">
    <path clip-path="url(#p213fa45107)" d="M 546.284483 131.190056 
L 560.715517 131.190056 
L 560.715517 131.38564 
L 546.284483 131.38564 
z
" style="fill:none;opacity:0;"/>
   </g>
   <g id="patch_18">
    <path clip-path="url(#p213fa45107)" d="M 575.146552 131.190056 
L 589.577586 131.190056 
L 589.577586 181.578337 
L 575.146552 181.578337 
z
" style="fill:none;opacity:0;"/>
   </g>
   <g id="patch_19">
    <path clip-path="url(#p213fa45107)" d="M 604.008621 131.190056 
L 618.439655 131.190056 
L 618.439655 145.563479 
L 604.008621 145.563479 
z
" style="fill:none;opacity:0;"/>
   </g>
   <g id="patch_20">
    <path clip-path="url(#p213fa45107)" d="M 632.87069 131.190056 
L 647.301724 131.190056 
L 647.301724 157.799429 
L 632.87069 157.799429 
z
" style="fill:none;opacity:0;"/>
   </g>
   <g id="patch_21">
    <path clip-path="url(#p213fa45107)" d="M 661.732759 131.190056 
L 676.163793 131.190056 
L 676.163793 129.135961 
L 661.732759 129.135961 
z
" style="fill:none;opacity:0;"/>
   </g>
   <g id="patch_22">
    <path clip-path="url(#p213fa45107)" d="M 690.594828 131.190056 
L 705.025862 131.190056 
L 705.025862 145.563479 
L 690.594828 145.563479 
z
" style="fill:none;opacity:0;"/>
   </g>
   <g id="patch_23">
    <path clip-path="url(#p213fa45107)" d="M 719.456897 131.190056 
L 733.887931 131.190056 
L 733.887931 145.563479 
L 719.456897 145.563479 
z
" style="fill:none;opacity:0;"/>
   </g>
   <g id="patch_24">
    <path clip-path="url(#p213fa45107)" d="M 748.318966 131.190056 
L 762.75 131.190056 
L 762.75 145.563479 
L 748.318966 145.563479 
z
" style="fill:none;opacity:0;"/>
   </g>
   <g id="patch_25">
    <path clip-path="url(#p213fa45107)" d="M 777.181034 131.190056 
L 791.612069 131.190056 
L 791.612069 145.563479 
L 777.181034 145.563479 
z
" style="fill:none;opacity:0;"/>
   </g>
   <g id="patch_26">
    <path clip-path="url(#p213fa45107)" d="M 806.043103 131.190056 
L 820.474138 131.190056 
L 820.474138 235.895117 
L 806.043103 235.895117 
z
" style="fill:none;opacity:0;"/>
   </g>
   <g id="patch_27">
    <path clip-path="url(#p213fa45107)" d="M 834.905172 131.190056 
L 849.336207 131.190056 
L 849.336207 145.563479 
L 834.905172 145.563479 
z
" style="fill:none;opacity:0;"/>
   </g>
   <g id="patch_28">
    <path clip-path="url(#p213fa45107)" d="M 863.767241 131.190056 
L 878.198276 131.190056 
L 878.198276 146.149731 
L 863.767241 146.149731 
z
" style="fill:none;opacity:0;"/>
   </g>
   <g id="patch_29">
    <path clip-path="url(#p213fa45107)" d="M 892.62931 131.190056 
L 907.060345 131.190056 
L 907.060345 145.563479 
L 892.62931 145.563479 
z
" style="fill:none;opacity:0;"/>
   </g>
   <g id="patch_30">
    <path clip-path="url(#p213fa45107)" d="M 921.491379 131.190056 
L 935.922414 131.190056 
L 935.922414 133.113176 
L 921.491379 133.113176 
z
" style="fill:none;opacity:0;"/>
   </g>
   <g id="patch_31">
    <path clip-path="url(#p213fa45107)" d="M 950.353448 131.190056 
L 964.784483 131.190056 
L 964.784483 145.563479 
L 950.353448 145.563479 
z
" style="fill:none;opacity:0;"/>
   </g>
   <g id="patch_32">
    <path clip-path="url(#p213fa45107)" d="M 142.215517 131.190056 
L 156.646552 131.190056 
L 156.646552 126.157008 
L 142.215517 126.157008 
z
" style="fill:none;opacity:0;"/>
   </g>
   <g id="patch_33">
    <path clip-path="url(#p213fa45107)" d="M 171.077586 131.190056 
L 185.508621 131.190056 
L 185.508621 127.385678 
L 171.077586 127.385678 
z
" style="fill:none;opacity:0;"/>
   </g>
   <g id="patch_34">
    <path clip-path="url(#p213fa45107)" d="M 199.939655 131.190056 
L 214.37069 131.190056 
L 214.37069 129.501239 
L 199.939655 129.501239 
z
" style="fill:none;opacity:0;"/>
   </g>
   <g id="patch_35">
    <path clip-path="url(#p213fa45107)" d="M 228.801724 131.190056 
L 243.232759 131.190056 
L 243.232759 121.327952 
L 228.801724 121.327952 
z
" style="fill:none;opacity:0;"/>
   </g>
   <g id="patch_36">
    <path clip-path="url(#p213fa45107)" d="M 257.663793 131.190056 
L 272.094828 131.190056 
L 272.094828 126.046537 
L 257.663793 126.046537 
z
" style="fill:none;opacity:0;"/>
   </g>
   <g id="patch_37">
    <path clip-path="url(#p213fa45107)" d="M 286.525862 131.190056 
L 300.956897 131.190056 
L 300.956897 123.882543 
L 286.525862 123.882543 
z
" style="fill:none;opacity:0;"/>
   </g>
   <g id="patch_38">
    <path clip-path="url(#p213fa45107)" d="M 315.387931 131.190056 
L 329.818966 131.190056 
L 329.818966 132.685219 
L 315.387931 132.685219 
z
" style="fill:none;opacity:0;"/>
   </g>
   <g id="patch_39">
    <path clip-path="url(#p213fa45107)" d="M 344.25 131.190056 
L 358.681034 131.190056 
L 358.681034 135.299051 
L 344.25 135.299051 
z
" style="fill:none;opacity:0;"/>
   </g>
   <g id="patch_40">
    <path clip-path="url(#p213fa45107)" d="M 373.112069 131.190056 
L 387.543103 131.190056 
L 387.543103 135.141188 
L 373.112069 135.141188 
z
" style="fill:none;opacity:0;"/>
   </g>
   <g id="patch_41">
    <path clip-path="url(#p213fa45107)" d="M 401.974138 131.190056 
L 416.405172 131.190056 
L 416.405172 136.193521 
L 401.974138 136.193521 
z
" style="fill:none;opacity:0;"/>
   </g>
   <g id="patch_42">
    <path clip-path="url(#p213fa45107)" d="M 430.836207 131.190056 
L 445.267241 131.190056 
L 445.267241 135.135001 
L 430.836207 135.135001 
z
" style="fill:none;opacity:0;"/>
   </g>
   <g id="patch_43">
    <path clip-path="url(#p213fa45107)" d="M 459.698276 131.190056 
L 474.12931 131.190056 
L 474.12931 117.065029 
L 459.698276 117.065029 
z
" style="fill:none;opacity:0;"/>
   </g>
   <g id="patch_44">
    <path clip-path="url(#p213fa45107)" d="M 488.560345 131.190056 
L 502.991379 131.190056 
L 502.991379 125.449965 
L 488.560345 125.449965 
z
" style="fill:none;opacity:0;"/>
   </g>
   <g id="patch_45">
    <path clip-path="url(#p213fa45107)" d="M 517.422414 131.190056 
L 531.853448 131.190056 
L 531.853448 75.109465 
L 517.422414 75.109465 
z
" style="fill:none;opacity:0;"/>
   </g>
   <g id="patch_46">
    <path clip-path="url(#p213fa45107)" d="M 546.284483 131.190056 
L 560.715517 131.190056 
L 560.715517 222.126246 
L 546.284483 222.126246 
z
" style="fill:none;opacity:0;"/>
   </g>
   <g id="patch_47">
    <path clip-path="url(#p213fa45107)" d="M 575.146552 131.190056 
L 589.577586 131.190056 
L 589.577586 115.033584 
L 575.146552 115.033584 
z
" style="fill:none;opacity:0;"/>
   </g>
   <g id="patch_48">
    <path clip-path="url(#p213fa45107)" d="M 604.008621 131.190056 
L 618.439655 131.190056 
L 618.439655 123.706798 
L 604.008621 123.706798 
z
" style="fill:none;opacity:0;"/>
   </g>
   <g id="patch_49">
    <path clip-path="url(#p213fa45107)" d="M 632.87069 131.190056 
L 647.301724 131.190056 
L 647.301724 130.062244 
L 632.87069 130.062244 
z
" style="fill:none;opacity:0;"/>
   </g>
   <g id="patch_50">
    <path clip-path="url(#p213fa45107)" d="M 661.732759 131.190056 
L 676.163793 131.190056 
L 676.163793 125.923772 
L 661.732759 125.923772 
z
" style="fill:none;opacity:0;"/>
   </g>
   <g id="patch_51">
    <path clip-path="url(#p213fa45107)" d="M 690.594828 131.190056 
L 705.025862 131.190056 
L 705.025862 141.23971 
L 690.594828 141.23971 
z
" style="fill:none;opacity:0;"/>
   </g>
   <g id="patch_52">
    <path clip-path="url(#p213fa45107)" d="M 719.456897 131.190056 
L 733.887931 131.190056 
L 733.887931 125.573731 
L 719.456897 125.573731 
z
" style="fill:none;opacity:0;"/>
   </g>
   <g id="patch_53">
    <path clip-path="url(#p213fa45107)" d="M 748.318966 131.190056 
L 762.75 131.190056 
L 762.75 126.854558 
L 748.318966 126.854558 
z
" style="fill:none;opacity:0;"/>
   </g>
   <g id="patch_54">
    <path clip-path="url(#p213fa45107)" d="M 777.181034 131.190056 
L 791.612069 131.190056 
L 791.612069 122.782746 
L 777.181034 122.782746 
z
" style="fill:none;opacity:0;"/>
   </g>
   <g id="patch_55">
    <path clip-path="url(#p213fa45107)" d="M 806.043103 131.190056 
L 820.474138 131.190056 
L 820.474138 128.726007 
L 806.043103 128.726007 
z
" style="fill:none;opacity:0;"/>
   </g>
   <g id="patch_56">
    <path clip-path="url(#p213fa45107)" d="M 834.905172 131.190056 
L 849.336207 131.190056 
L 849.336207 104.901397 
L 834.905172 104.901397 
z
" style="fill:none;opacity:0;"/>
   </g>
   <g id="patch_57">
    <path clip-path="url(#p213fa45107)" d="M 863.767241 131.190056 
L 878.198276 131.190056 
L 878.198276 145.835951 
L 863.767241 145.835951 
z
" style="fill:none;opacity:0;"/>
   </g>
   <g id="patch_58">
    <path clip-path="url(#p213fa45107)" d="M 892.62931 131.190056 
L 907.060345 131.190056 
L 907.060345 124.982003 
L 892.62931 124.982003 
z
" style="fill:none;opacity:0;"/>
   </g>
   <g id="patch_59">
    <path clip-path="url(#p213fa45107)" d="M 921.491379 131.190056 
L 935.922414 131.190056 
L 935.922414 126.459569 
L 921.491379 126.459569 
z
" style="fill:none;opacity:0;"/>
   </g>
   <g id="patch_60">
    <path clip-path="url(#p213fa45107)" d="M 950.353448 131.190056 
L 964.784483 131.190056 
L 964.784483 124.246489 
L 950.353448 124.246489 
z
" style="fill:none;opacity:0;"/>
   </g>
   <g id="LineCollection_1">
    <path clip-path="url(#p213fa45107)" d="M 149.431034 175.33902 
L 149.431034 115.787938 
" style="fill:none;stroke:#ffa500;stroke-width:2;"/>
    <path clip-path="url(#p213fa45107)" d="M 178.293103 153.261384 
L 178.293103 94.271765 
" style="fill:none;stroke:#ffa500;stroke-width:2;"/>
    <path clip-path="url(#p213fa45107)" d="M 207.155172 180.332085 
L 207.155172 114.963928 
" style="fill:none;stroke:#ffa500;stroke-width:2;"/>
    <path clip-path="url(#p213fa45107)" d="M 236.017241 170.102317 
L 236.017241 99.858082 
" style="fill:none;stroke:#ffa500;stroke-width:2;"/>
    <path clip-path="url(#p213fa45107)" d="M 264.87931 182.828936 
L 264.87931 116.889285 
" style="fill:none;stroke:#ffa500;stroke-width:2;"/>
    <path clip-path="url(#p213fa45107)" d="M 293.741379 167.309629 
L 293.741379 105.158902 
" style="fill:none;stroke:#ffa500;stroke-width:2;"/>
    <path clip-path="url(#p213fa45107)" d="M 322.603448 171.982069 
L 322.603448 111.678698 
" style="fill:none;stroke:#ffa500;stroke-width:2;"/>
    <path clip-path="url(#p213fa45107)" d="M 351.465517 171.704447 
L 351.465517 109.138122 
" style="fill:none;stroke:#ffa500;stroke-width:2;"/>
    <path clip-path="url(#p213fa45107)" d="M 380.327586 187.203821 
L 380.327586 118.663523 
" style="fill:none;stroke:#ffa500;stroke-width:2;"/>
    <path clip-path="url(#p213fa45107)" d="M 409.189655 153.360052 
L 409.189655 101.758413 
" style="fill:none;stroke:#ffa500;stroke-width:2;"/>
    <path clip-path="url(#p213fa45107)" d="M 438.051724 168.121661 
L 438.051724 113.580817 
" style="fill:none;stroke:#ffa500;stroke-width:2;"/>
    <path clip-path="url(#p213fa45107)" d="M 466.913793 199.222832 
L 466.913793 145.52683 
" style="fill:none;stroke:#ffa500;stroke-width:2;"/>
    <path clip-path="url(#p213fa45107)" d="M 495.775862 131.190056 
L 495.775862 159.936902 
" style="fill:none;stroke:#ffa500;stroke-width:2;"/>
    <path clip-path="url(#p213fa45107)" d="M 524.637931 226.998609 
L 524.637931 153.203889 
" style="fill:none;stroke:#ffa500;stroke-width:2;"/>
    <path clip-path="url(#p213fa45107)" d="M 553.5 161.786119 
L 553.5 100.985162 
" style="fill:none;stroke:#ffa500;stroke-width:2;"/>
    <path clip-path="url(#p213fa45107)" d="M 582.362069 216.700454 
L 582.362069 146.456219 
" style="fill:none;stroke:#ffa500;stroke-width:2;"/>
    <path clip-path="url(#p213fa45107)" d="M 611.224138 131.190056 
L 611.224138 159.936902 
" style="fill:none;stroke:#ffa500;stroke-width:2;"/>
    <path clip-path="url(#p213fa45107)" d="M 640.086207 190.505713 
L 640.086207 125.093145 
" style="fill:none;stroke:#ffa500;stroke-width:2;"/>
    <path clip-path="url(#p213fa45107)" d="M 668.948276 157.372763 
L 668.948276 100.89916 
" style="fill:none;stroke:#ffa500;stroke-width:2;"/>
    <path clip-path="url(#p213fa45107)" d="M 697.810345 131.190056 
L 697.810345 159.936902 
" style="fill:none;stroke:#ffa500;stroke-width:2;"/>
    <path clip-path="url(#p213fa45107)" d="M 726.672414 131.190056 
L 726.672414 159.936902 
" style="fill:none;stroke:#ffa500;stroke-width:2;"/>
    <path clip-path="url(#p213fa45107)" d="M 755.534483 131.190056 
L 755.534483 159.936902 
" style="fill:none;stroke:#ffa500;stroke-width:2;"/>
    <path clip-path="url(#p213fa45107)" d="M 784.396552 131.190056 
L 784.396552 159.936902 
" style="fill:none;stroke:#ffa500;stroke-width:2;"/>
    <path clip-path="url(#p213fa45107)" d="M 813.258621 302.645455 
L 813.258621 169.14478 
" style="fill:none;stroke:#ffa500;stroke-width:2;"/>
    <path clip-path="url(#p213fa45107)" d="M 842.12069 131.190056 
L 842.12069 159.936902 
" style="fill:none;stroke:#ffa500;stroke-width:2;"/>
    <path clip-path="url(#p213fa45107)" d="M 870.982759 194.644196 
L 870.982759 97.655266 
" style="fill:none;stroke:#ffa500;stroke-width:2;"/>
    <path clip-path="url(#p213fa45107)" d="M 899.844828 131.190056 
L 899.844828 159.936902 
" style="fill:none;stroke:#ffa500;stroke-width:2;"/>
    <path clip-path="url(#p213fa45107)" d="M 928.706897 156.240146 
L 928.706897 109.986206 
" style="fill:none;stroke:#ffa500;stroke-width:2;"/>
    <path clip-path="url(#p213fa45107)" d="M 957.568966 131.190056 
L 957.568966 159.936902 
" style="fill:none;stroke:#ffa500;stroke-width:2;"/>
   </g>
   <g id="LineCollection_2">
    <path clip-path="url(#p213fa45107)" d="M 149.431034 141.668079 
L 149.431034 110.645936 
" style="fill:none;stroke:#bf00bf;stroke-width:2;"/>
    <path clip-path="url(#p213fa45107)" d="M 178.293103 142.543128 
L 178.293103 112.228229 
" style="fill:none;stroke:#bf00bf;stroke-width:2;"/>
    <path clip-path="url(#p213fa45107)" d="M 207.155172 153.442743 
L 207.155172 105.559734 
" style="fill:none;stroke:#bf00bf;stroke-width:2;"/>
    <path clip-path="url(#p213fa45107)" d="M 236.017241 137.427409 
L 236.017241 105.228495 
" style="fill:none;stroke:#bf00bf;stroke-width:2;"/>
    <path clip-path="url(#p213fa45107)" d="M 264.87931 144.282115 
L 264.87931 107.810958 
" style="fill:none;stroke:#bf00bf;stroke-width:2;"/>
    <path clip-path="url(#p213fa45107)" d="M 293.741379 140.177913 
L 293.741379 107.587172 
" style="fill:none;stroke:#bf00bf;stroke-width:2;"/>
    <path clip-path="url(#p213fa45107)" d="M 322.603448 159.24272 
L 322.603448 106.127719 
" style="fill:none;stroke:#bf00bf;stroke-width:2;"/>
    <path clip-path="url(#p213fa45107)" d="M 351.465517 161.093646 
L 351.465517 109.504457 
" style="fill:none;stroke:#bf00bf;stroke-width:2;"/>
    <path clip-path="url(#p213fa45107)" d="M 380.327586 156.58995 
L 380.327586 113.692427 
" style="fill:none;stroke:#bf00bf;stroke-width:2;"/>
    <path clip-path="url(#p213fa45107)" d="M 409.189655 153.603921 
L 409.189655 118.783121 
" style="fill:none;stroke:#bf00bf;stroke-width:2;"/>
    <path clip-path="url(#p213fa45107)" d="M 438.051724 156.887703 
L 438.051724 113.382299 
" style="fill:none;stroke:#bf00bf;stroke-width:2;"/>
    <path clip-path="url(#p213fa45107)" d="M 466.913793 134.578643 
L 466.913793 99.551415 
" style="fill:none;stroke:#bf00bf;stroke-width:2;"/>
    <path clip-path="url(#p213fa45107)" d="M 495.775862 147.804364 
L 495.775862 103.095566 
" style="fill:none;stroke:#bf00bf;stroke-width:2;"/>
    <path clip-path="url(#p213fa45107)" d="M 524.637931 94.664385 
L 524.637931 55.554545 
" style="fill:none;stroke:#bf00bf;stroke-width:2;"/>
    <path clip-path="url(#p213fa45107)" d="M 553.5 245.882629 
L 553.5 198.369862 
" style="fill:none;stroke:#bf00bf;stroke-width:2;"/>
    <path clip-path="url(#p213fa45107)" d="M 582.362069 139.551325 
L 582.362069 90.515843 
" style="fill:none;stroke:#bf00bf;stroke-width:2;"/>
    <path clip-path="url(#p213fa45107)" d="M 611.224138 145.641657 
L 611.224138 101.771938 
" style="fill:none;stroke:#bf00bf;stroke-width:2;"/>
    <path clip-path="url(#p213fa45107)" d="M 640.086207 156.284424 
L 640.086207 103.840065 
" style="fill:none;stroke:#bf00bf;stroke-width:2;"/>
    <path clip-path="url(#p213fa45107)" d="M 668.948276 141.836868 
L 668.948276 110.010677 
" style="fill:none;stroke:#bf00bf;stroke-width:2;"/>
    <path clip-path="url(#p213fa45107)" d="M 697.810345 166.471743 
L 697.810345 116.007676 
" style="fill:none;stroke:#bf00bf;stroke-width:2;"/>
    <path clip-path="url(#p213fa45107)" d="M 726.672414 143.095603 
L 726.672414 108.051858 
" style="fill:none;stroke:#bf00bf;stroke-width:2;"/>
    <path clip-path="url(#p213fa45107)" d="M 755.534483 152.061656 
L 755.534483 101.647459 
" style="fill:none;stroke:#bf00bf;stroke-width:2;"/>
    <path clip-path="url(#p213fa45107)" d="M 784.396552 148.005624 
L 784.396552 97.559867 
" style="fill:none;stroke:#bf00bf;stroke-width:2;"/>
    <path clip-path="url(#p213fa45107)" d="M 813.258621 156.162116 
L 813.258621 101.289898 
" style="fill:none;stroke:#bf00bf;stroke-width:2;"/>
    <path clip-path="url(#p213fa45107)" d="M 842.12069 125.245969 
L 842.12069 84.556824 
" style="fill:none;stroke:#bf00bf;stroke-width:2;"/>
    <path clip-path="url(#p213fa45107)" d="M 870.982759 176.944061 
L 870.982759 114.727841 
" style="fill:none;stroke:#bf00bf;stroke-width:2;"/>
    <path clip-path="url(#p213fa45107)" d="M 899.844828 149.360254 
L 899.844828 100.603751 
" style="fill:none;stroke:#bf00bf;stroke-width:2;"/>
    <path clip-path="url(#p213fa45107)" d="M 928.706897 140.708637 
L 928.706897 112.210502 
" style="fill:none;stroke:#bf00bf;stroke-width:2;"/>
    <path clip-path="url(#p213fa45107)" d="M 957.568966 150.50583 
L 957.568966 97.987147 
" style="fill:none;stroke:#bf00bf;stroke-width:2;"/>
   </g>
   <g id="line2d_34">
    <defs>
     <path d="M 5 0 
L -5 -0 
" id="m4bb8998700" style="stroke:#ffa500;stroke-width:2;"/>
    </defs>
    <g clip-path="url(#p213fa45107)">
     <use style="fill:#ffa500;stroke:#ffa500;stroke-width:2;" x="149.431034" xlink:href="#m4bb8998700" y="175.33902"/>
     <use style="fill:#ffa500;stroke:#ffa500;stroke-width:2;" x="178.293103" xlink:href="#m4bb8998700" y="153.261384"/>
     <use style="fill:#ffa500;stroke:#ffa500;stroke-width:2;" x="207.155172" xlink:href="#m4bb8998700" y="180.332085"/>
     <use style="fill:#ffa500;stroke:#ffa500;stroke-width:2;" x="236.017241" xlink:href="#m4bb8998700" y="170.102317"/>
     <use style="fill:#ffa500;stroke:#ffa500;stroke-width:2;" x="264.87931" xlink:href="#m4bb8998700" y="182.828936"/>
     <use style="fill:#ffa500;stroke:#ffa500;stroke-width:2;" x="293.741379" xlink:href="#m4bb8998700" y="167.309629"/>
     <use style="fill:#ffa500;stroke:#ffa500;stroke-width:2;" x="322.603448" xlink:href="#m4bb8998700" y="171.982069"/>
     <use style="fill:#ffa500;stroke:#ffa500;stroke-width:2;" x="351.465517" xlink:href="#m4bb8998700" y="171.704447"/>
     <use style="fill:#ffa500;stroke:#ffa500;stroke-width:2;" x="380.327586" xlink:href="#m4bb8998700" y="187.203821"/>
     <use style="fill:#ffa500;stroke:#ffa500;stroke-width:2;" x="409.189655" xlink:href="#m4bb8998700" y="153.360052"/>
     <use style="fill:#ffa500;stroke:#ffa500;stroke-width:2;" x="438.051724" xlink:href="#m4bb8998700" y="168.121661"/>
     <use style="fill:#ffa500;stroke:#ffa500;stroke-width:2;" x="466.913793" xlink:href="#m4bb8998700" y="199.222832"/>
     <use style="fill:#ffa500;stroke:#ffa500;stroke-width:2;" x="495.775862" xlink:href="#m4bb8998700" y="131.190056"/>
     <use style="fill:#ffa500;stroke:#ffa500;stroke-width:2;" x="524.637931" xlink:href="#m4bb8998700" y="226.998609"/>
     <use style="fill:#ffa500;stroke:#ffa500;stroke-width:2;" x="553.5" xlink:href="#m4bb8998700" y="161.786119"/>
     <use style="fill:#ffa500;stroke:#ffa500;stroke-width:2;" x="582.362069" xlink:href="#m4bb8998700" y="216.700454"/>
     <use style="fill:#ffa500;stroke:#ffa500;stroke-width:2;" x="611.224138" xlink:href="#m4bb8998700" y="131.190056"/>
     <use style="fill:#ffa500;stroke:#ffa500;stroke-width:2;" x="640.086207" xlink:href="#m4bb8998700" y="190.505713"/>
     <use style="fill:#ffa500;stroke:#ffa500;stroke-width:2;" x="668.948276" xlink:href="#m4bb8998700" y="157.372763"/>
     <use style="fill:#ffa500;stroke:#ffa500;stroke-width:2;" x="697.810345" xlink:href="#m4bb8998700" y="131.190056"/>
     <use style="fill:#ffa500;stroke:#ffa500;stroke-width:2;" x="726.672414" xlink:href="#m4bb8998700" y="131.190056"/>
     <use style="fill:#ffa500;stroke:#ffa500;stroke-width:2;" x="755.534483" xlink:href="#m4bb8998700" y="131.190056"/>
     <use style="fill:#ffa500;stroke:#ffa500;stroke-width:2;" x="784.396552" xlink:href="#m4bb8998700" y="131.190056"/>
     <use style="fill:#ffa500;stroke:#ffa500;stroke-width:2;" x="813.258621" xlink:href="#m4bb8998700" y="302.645455"/>
     <use style="fill:#ffa500;stroke:#ffa500;stroke-width:2;" x="842.12069" xlink:href="#m4bb8998700" y="131.190056"/>
     <use style="fill:#ffa500;stroke:#ffa500;stroke-width:2;" x="870.982759" xlink:href="#m4bb8998700" y="194.644196"/>
     <use style="fill:#ffa500;stroke:#ffa500;stroke-width:2;" x="899.844828" xlink:href="#m4bb8998700" y="131.190056"/>
     <use style="fill:#ffa500;stroke:#ffa500;stroke-width:2;" x="928.706897" xlink:href="#m4bb8998700" y="156.240146"/>
     <use style="fill:#ffa500;stroke:#ffa500;stroke-width:2;" x="957.568966" xlink:href="#m4bb8998700" y="131.190056"/>
    </g>
   </g>
   <g id="line2d_35">
    <g clip-path="url(#p213fa45107)">
     <use style="fill:#ffa500;stroke:#ffa500;stroke-width:2;" x="149.431034" xlink:href="#m4bb8998700" y="115.787938"/>
     <use style="fill:#ffa500;stroke:#ffa500;stroke-width:2;" x="178.293103" xlink:href="#m4bb8998700" y="94.271765"/>
     <use style="fill:#ffa500;stroke:#ffa500;stroke-width:2;" x="207.155172" xlink:href="#m4bb8998700" y="114.963928"/>
     <use style="fill:#ffa500;stroke:#ffa500;stroke-width:2;" x="236.017241" xlink:href="#m4bb8998700" y="99.858082"/>
     <use style="fill:#ffa500;stroke:#ffa500;stroke-width:2;" x="264.87931" xlink:href="#m4bb8998700" y="116.889285"/>
     <use style="fill:#ffa500;stroke:#ffa500;stroke-width:2;" x="293.741379" xlink:href="#m4bb8998700" y="105.158902"/>
     <use style="fill:#ffa500;stroke:#ffa500;stroke-width:2;" x="322.603448" xlink:href="#m4bb8998700" y="111.678698"/>
     <use style="fill:#ffa500;stroke:#ffa500;stroke-width:2;" x="351.465517" xlink:href="#m4bb8998700" y="109.138122"/>
     <use style="fill:#ffa500;stroke:#ffa500;stroke-width:2;" x="380.327586" xlink:href="#m4bb8998700" y="118.663523"/>
     <use style="fill:#ffa500;stroke:#ffa500;stroke-width:2;" x="409.189655" xlink:href="#m4bb8998700" y="101.758413"/>
     <use style="fill:#ffa500;stroke:#ffa500;stroke-width:2;" x="438.051724" xlink:href="#m4bb8998700" y="113.580817"/>
     <use style="fill:#ffa500;stroke:#ffa500;stroke-width:2;" x="466.913793" xlink:href="#m4bb8998700" y="145.52683"/>
     <use style="fill:#ffa500;stroke:#ffa500;stroke-width:2;" x="495.775862" xlink:href="#m4bb8998700" y="159.936902"/>
     <use style="fill:#ffa500;stroke:#ffa500;stroke-width:2;" x="524.637931" xlink:href="#m4bb8998700" y="153.203889"/>
     <use style="fill:#ffa500;stroke:#ffa500;stroke-width:2;" x="553.5" xlink:href="#m4bb8998700" y="100.985162"/>
     <use style="fill:#ffa500;stroke:#ffa500;stroke-width:2;" x="582.362069" xlink:href="#m4bb8998700" y="146.456219"/>
     <use style="fill:#ffa500;stroke:#ffa500;stroke-width:2;" x="611.224138" xlink:href="#m4bb8998700" y="159.936902"/>
     <use style="fill:#ffa500;stroke:#ffa500;stroke-width:2;" x="640.086207" xlink:href="#m4bb8998700" y="125.093145"/>
     <use style="fill:#ffa500;stroke:#ffa500;stroke-width:2;" x="668.948276" xlink:href="#m4bb8998700" y="100.89916"/>
     <use style="fill:#ffa500;stroke:#ffa500;stroke-width:2;" x="697.810345" xlink:href="#m4bb8998700" y="159.936902"/>
     <use style="fill:#ffa500;stroke:#ffa500;stroke-width:2;" x="726.672414" xlink:href="#m4bb8998700" y="159.936902"/>
     <use style="fill:#ffa500;stroke:#ffa500;stroke-width:2;" x="755.534483" xlink:href="#m4bb8998700" y="159.936902"/>
     <use style="fill:#ffa500;stroke:#ffa500;stroke-width:2;" x="784.396552" xlink:href="#m4bb8998700" y="159.936902"/>
     <use style="fill:#ffa500;stroke:#ffa500;stroke-width:2;" x="813.258621" xlink:href="#m4bb8998700" y="169.14478"/>
     <use style="fill:#ffa500;stroke:#ffa500;stroke-width:2;" x="842.12069" xlink:href="#m4bb8998700" y="159.936902"/>
     <use style="fill:#ffa500;stroke:#ffa500;stroke-width:2;" x="870.982759" xlink:href="#m4bb8998700" y="97.655266"/>
     <use style="fill:#ffa500;stroke:#ffa500;stroke-width:2;" x="899.844828" xlink:href="#m4bb8998700" y="159.936902"/>
     <use style="fill:#ffa500;stroke:#ffa500;stroke-width:2;" x="928.706897" xlink:href="#m4bb8998700" y="109.986206"/>
     <use style="fill:#ffa500;stroke:#ffa500;stroke-width:2;" x="957.568966" xlink:href="#m4bb8998700" y="159.936902"/>
    </g>
   </g>
   <g id="line2d_36">
    <defs>
     <path d="M 5 0 
L -5 -0 
" id="m12d5c37db1" style="stroke:#bf00bf;stroke-width:2;"/>
    </defs>
    <g clip-path="url(#p213fa45107)">
     <use style="fill:#bf00bf;stroke:#bf00bf;stroke-width:2;" x="149.431034" xlink:href="#m12d5c37db1" y="141.668079"/>
     <use style="fill:#bf00bf;stroke:#bf00bf;stroke-width:2;" x="178.293103" xlink:href="#m12d5c37db1" y="142.543128"/>
     <use style="fill:#bf00bf;stroke:#bf00bf;stroke-width:2;" x="207.155172" xlink:href="#m12d5c37db1" y="153.442743"/>
     <use style="fill:#bf00bf;stroke:#bf00bf;stroke-width:2;" x="236.017241" xlink:href="#m12d5c37db1" y="137.427409"/>
     <use style="fill:#bf00bf;stroke:#bf00bf;stroke-width:2;" x="264.87931" xlink:href="#m12d5c37db1" y="144.282115"/>
     <use style="fill:#bf00bf;stroke:#bf00bf;stroke-width:2;" x="293.741379" xlink:href="#m12d5c37db1" y="140.177913"/>
     <use style="fill:#bf00bf;stroke:#bf00bf;stroke-width:2;" x="322.603448" xlink:href="#m12d5c37db1" y="159.24272"/>
     <use style="fill:#bf00bf;stroke:#bf00bf;stroke-width:2;" x="351.465517" xlink:href="#m12d5c37db1" y="161.093646"/>
     <use style="fill:#bf00bf;stroke:#bf00bf;stroke-width:2;" x="380.327586" xlink:href="#m12d5c37db1" y="156.58995"/>
     <use style="fill:#bf00bf;stroke:#bf00bf;stroke-width:2;" x="409.189655" xlink:href="#m12d5c37db1" y="153.603921"/>
     <use style="fill:#bf00bf;stroke:#bf00bf;stroke-width:2;" x="438.051724" xlink:href="#m12d5c37db1" y="156.887703"/>
     <use style="fill:#bf00bf;stroke:#bf00bf;stroke-width:2;" x="466.913793" xlink:href="#m12d5c37db1" y="134.578643"/>
     <use style="fill:#bf00bf;stroke:#bf00bf;stroke-width:2;" x="495.775862" xlink:href="#m12d5c37db1" y="147.804364"/>
     <use style="fill:#bf00bf;stroke:#bf00bf;stroke-width:2;" x="524.637931" xlink:href="#m12d5c37db1" y="94.664385"/>
     <use style="fill:#bf00bf;stroke:#bf00bf;stroke-width:2;" x="553.5" xlink:href="#m12d5c37db1" y="245.882629"/>
     <use style="fill:#bf00bf;stroke:#bf00bf;stroke-width:2;" x="582.362069" xlink:href="#m12d5c37db1" y="139.551325"/>
     <use style="fill:#bf00bf;stroke:#bf00bf;stroke-width:2;" x="611.224138" xlink:href="#m12d5c37db1" y="145.641657"/>
     <use style="fill:#bf00bf;stroke:#bf00bf;stroke-width:2;" x="640.086207" xlink:href="#m12d5c37db1" y="156.284424"/>
     <use style="fill:#bf00bf;stroke:#bf00bf;stroke-width:2;" x="668.948276" xlink:href="#m12d5c37db1" y="141.836868"/>
     <use style="fill:#bf00bf;stroke:#bf00bf;stroke-width:2;" x="697.810345" xlink:href="#m12d5c37db1" y="166.471743"/>
     <use style="fill:#bf00bf;stroke:#bf00bf;stroke-width:2;" x="726.672414" xlink:href="#m12d5c37db1" y="143.095603"/>
     <use style="fill:#bf00bf;stroke:#bf00bf;stroke-width:2;" x="755.534483" xlink:href="#m12d5c37db1" y="152.061656"/>
     <use style="fill:#bf00bf;stroke:#bf00bf;stroke-width:2;" x="784.396552" xlink:href="#m12d5c37db1" y="148.005624"/>
     <use style="fill:#bf00bf;stroke:#bf00bf;stroke-width:2;" x="813.258621" xlink:href="#m12d5c37db1" y="156.162116"/>
     <use style="fill:#bf00bf;stroke:#bf00bf;stroke-width:2;" x="842.12069" xlink:href="#m12d5c37db1" y="125.245969"/>
     <use style="fill:#bf00bf;stroke:#bf00bf;stroke-width:2;" x="870.982759" xlink:href="#m12d5c37db1" y="176.944061"/>
     <use style="fill:#bf00bf;stroke:#bf00bf;stroke-width:2;" x="899.844828" xlink:href="#m12d5c37db1" y="149.360254"/>
     <use style="fill:#bf00bf;stroke:#bf00bf;stroke-width:2;" x="928.706897" xlink:href="#m12d5c37db1" y="140.708637"/>
     <use style="fill:#bf00bf;stroke:#bf00bf;stroke-width:2;" x="957.568966" xlink:href="#m12d5c37db1" y="150.50583"/>
    </g>
   </g>
   <g id="line2d_37">
    <g clip-path="url(#p213fa45107)">
     <use style="fill:#bf00bf;stroke:#bf00bf;stroke-width:2;" x="149.431034" xlink:href="#m12d5c37db1" y="110.645936"/>
     <use style="fill:#bf00bf;stroke:#bf00bf;stroke-width:2;" x="178.293103" xlink:href="#m12d5c37db1" y="112.228229"/>
     <use style="fill:#bf00bf;stroke:#bf00bf;stroke-width:2;" x="207.155172" xlink:href="#m12d5c37db1" y="105.559734"/>
     <use style="fill:#bf00bf;stroke:#bf00bf;stroke-width:2;" x="236.017241" xlink:href="#m12d5c37db1" y="105.228495"/>
     <use style="fill:#bf00bf;stroke:#bf00bf;stroke-width:2;" x="264.87931" xlink:href="#m12d5c37db1" y="107.810958"/>
     <use style="fill:#bf00bf;stroke:#bf00bf;stroke-width:2;" x="293.741379" xlink:href="#m12d5c37db1" y="107.587172"/>
     <use style="fill:#bf00bf;stroke:#bf00bf;stroke-width:2;" x="322.603448" xlink:href="#m12d5c37db1" y="106.127719"/>
     <use style="fill:#bf00bf;stroke:#bf00bf;stroke-width:2;" x="351.465517" xlink:href="#m12d5c37db1" y="109.504457"/>
     <use style="fill:#bf00bf;stroke:#bf00bf;stroke-width:2;" x="380.327586" xlink:href="#m12d5c37db1" y="113.692427"/>
     <use style="fill:#bf00bf;stroke:#bf00bf;stroke-width:2;" x="409.189655" xlink:href="#m12d5c37db1" y="118.783121"/>
     <use style="fill:#bf00bf;stroke:#bf00bf;stroke-width:2;" x="438.051724" xlink:href="#m12d5c37db1" y="113.382299"/>
     <use style="fill:#bf00bf;stroke:#bf00bf;stroke-width:2;" x="466.913793" xlink:href="#m12d5c37db1" y="99.551415"/>
     <use style="fill:#bf00bf;stroke:#bf00bf;stroke-width:2;" x="495.775862" xlink:href="#m12d5c37db1" y="103.095566"/>
     <use style="fill:#bf00bf;stroke:#bf00bf;stroke-width:2;" x="524.637931" xlink:href="#m12d5c37db1" y="55.554545"/>
     <use style="fill:#bf00bf;stroke:#bf00bf;stroke-width:2;" x="553.5" xlink:href="#m12d5c37db1" y="198.369862"/>
     <use style="fill:#bf00bf;stroke:#bf00bf;stroke-width:2;" x="582.362069" xlink:href="#m12d5c37db1" y="90.515843"/>
     <use style="fill:#bf00bf;stroke:#bf00bf;stroke-width:2;" x="611.224138" xlink:href="#m12d5c37db1" y="101.771938"/>
     <use style="fill:#bf00bf;stroke:#bf00bf;stroke-width:2;" x="640.086207" xlink:href="#m12d5c37db1" y="103.840065"/>
     <use style="fill:#bf00bf;stroke:#bf00bf;stroke-width:2;" x="668.948276" xlink:href="#m12d5c37db1" y="110.010677"/>
     <use style="fill:#bf00bf;stroke:#bf00bf;stroke-width:2;" x="697.810345" xlink:href="#m12d5c37db1" y="116.007676"/>
     <use style="fill:#bf00bf;stroke:#bf00bf;stroke-width:2;" x="726.672414" xlink:href="#m12d5c37db1" y="108.051858"/>
     <use style="fill:#bf00bf;stroke:#bf00bf;stroke-width:2;" x="755.534483" xlink:href="#m12d5c37db1" y="101.647459"/>
     <use style="fill:#bf00bf;stroke:#bf00bf;stroke-width:2;" x="784.396552" xlink:href="#m12d5c37db1" y="97.559867"/>
     <use style="fill:#bf00bf;stroke:#bf00bf;stroke-width:2;" x="813.258621" xlink:href="#m12d5c37db1" y="101.289898"/>
     <use style="fill:#bf00bf;stroke:#bf00bf;stroke-width:2;" x="842.12069" xlink:href="#m12d5c37db1" y="84.556824"/>
     <use style="fill:#bf00bf;stroke:#bf00bf;stroke-width:2;" x="870.982759" xlink:href="#m12d5c37db1" y="114.727841"/>
     <use style="fill:#bf00bf;stroke:#bf00bf;stroke-width:2;" x="899.844828" xlink:href="#m12d5c37db1" y="100.603751"/>
     <use style="fill:#bf00bf;stroke:#bf00bf;stroke-width:2;" x="928.706897" xlink:href="#m12d5c37db1" y="112.210502"/>
     <use style="fill:#bf00bf;stroke:#bf00bf;stroke-width:2;" x="957.568966" xlink:href="#m12d5c37db1" y="97.987147"/>
    </g>
   </g>
   <g id="line2d_38">
    <path clip-path="url(#p213fa45107)" d="M 135 131.190056 
L 972 131.190056 
" style="fill:none;stroke:#000000;stroke-dasharray:3.7,1.6;stroke-dashoffset:0;"/>
   </g>
   <g id="patch_61">
    <path d="M 135 315 
L 135 43.2 
" style="fill:none;stroke:#000000;stroke-linecap:square;stroke-linejoin:miter;stroke-width:1.25;"/>
   </g>
   <g id="patch_62">
    <path d="M 972 315 
L 972 43.2 
" style="fill:none;stroke:#000000;stroke-linecap:square;stroke-linejoin:miter;stroke-width:1.25;"/>
   </g>
   <g id="patch_63">
    <path d="M 135 315 
L 972 315 
" style="fill:none;stroke:#000000;stroke-linecap:square;stroke-linejoin:miter;stroke-width:1.25;"/>
   </g>
   <g id="patch_64">
    <path d="M 135 43.2 
L 972 43.2 
" style="fill:none;stroke:#000000;stroke-linecap:square;stroke-linejoin:miter;stroke-width:1.25;"/>
   </g>
   <g id="legend_1">
    <g id="patch_65">
     <path d="M 150.4 304 
L 220.8 304 
Q 225.2 304 225.2 299.6 
L 225.2 239.560625 
Q 225.2 235.160625 220.8 235.160625 
L 150.4 235.160625 
Q 146 235.160625 146 239.560625 
L 146 299.6 
Q 146 304 150.4 304 
z
" style="fill:#ffffff;opacity:0.8;stroke:#cccccc;stroke-linejoin:miter;"/>
    </g>
    <g id="patch_66">
     <path d="M 154.8 259.707812 
L 198.8 259.707812 
L 198.8 244.307812 
L 154.8 244.307812 
z
" style="fill:none;opacity:0;"/>
    </g>
    <g id="patch_67">
     <path d="M 154.8 290.8275 
L 198.8 290.8275 
L 198.8 275.4275 
L 154.8 275.4275 
z
" style="fill:none;opacity:0;"/>
    </g>
   </g>
  </g>
 </g>
 <defs>
  <clipPath id="p213fa45107">
   <rect height="271.8" width="837" x="135" y="43.2"/>
  </clipPath>
 </defs>
</svg>
